<svg width="84" height="84" viewBox="0 0 84 84" fill="none" xmlns="http://www.w3.org/2000/svg">
    <path fill-rule="evenodd" clip-rule="evenodd" d="M69.9989 63H24.4989C20.6314 63 17.4989 59.8675 17.4989 56V17.5C17.4989 13.6325 20.6314 10.5 24.4989 10.5H69.9989C73.8664 10.5 76.9989 13.6325 76.9989 17.5V56C76.9989 59.8675 73.8664 63 69.9989 63Z" stroke="#304659" stroke-width="3" stroke-linecap="round" stroke-linejoin="round"/>
    <path d="M55.9849 73.5H13.9989C10.1314 73.5 6.9989 70.3675 6.9989 66.5V29.3965" stroke="#304659" stroke-width="3" stroke-linecap="round" stroke-linejoin="round"/>
    <path d="M39.7079 23.8729C41.9864 26.1515 41.9864 29.8457 39.7079 32.1242C37.4294 34.4027 33.7352 34.4027 31.4567 32.1242C29.1782 29.8456 29.1782 26.1514 31.4567 23.8729C33.7352 21.5944 37.4294 21.5944 39.7079 23.8729" stroke="#304659" stroke-width="3" stroke-linecap="round" stroke-linejoin="round"/>
    <path d="M76.9978 48.4165L65.1468 38.935C63.6383 37.7275 61.4333 37.9725 60.2258 39.481L51.2238 50.7335C50.0163 52.242 47.8148 52.487 46.3028 51.2795L41.7563 47.643C40.2688 46.453 38.1023 46.67 36.8808 48.1365L24.4978 63.001" stroke="#304659" stroke-width="3" stroke-linecap="round" stroke-linejoin="round"/>
</svg>
