<svg width="25" height="25" viewBox="0 0 25 25" fill="none" xmlns="http://www.w3.org/2000/svg">
    <path d="M21.5678 17.1241C20.819 15.7271 18.8903 14.0486 18.0941 13.3181C17.8761 13.1181 17.8528 12.7721 18.0511 12.551C19.5707 10.8581 20.7861 8.91304 21.2044 7.7377C21.389 7.21849 21.0069 6.6699 20.4686 6.6699H18.9049C18.3895 6.6699 18.0878 6.86169 17.9441 7.16708C16.6812 9.84995 15.5978 11.011 14.8395 11.6896C14.4149 12.0698 13.7529 11.7549 13.7529 11.1765C13.7529 10.062 13.7529 8.62147 13.7529 7.5999C13.7529 7.10445 13.362 6.7036 12.88 6.7036L10.0233 6.6699C9.66375 6.6699 9.45833 7.09192 9.67416 7.38781L10.1458 8.08974C10.3233 8.33293 10.4192 8.62882 10.4192 8.93248L10.4167 12.0935C10.4167 12.6434 9.77375 12.9121 9.39209 12.5268C8.10085 11.2231 6.98045 8.561 6.57712 7.28803C6.46045 6.91957 6.12754 6.67077 5.75005 6.6699L4.20965 6.66602C3.63174 6.66602 3.20924 7.23404 3.36632 7.80594C4.77381 12.9276 7.66169 17.8001 12.8083 18.3284C13.3154 18.3802 13.7529 17.9569 13.7529 17.4329V15.7716C13.7529 15.2952 14.1133 14.8857 14.5766 14.8736C14.5929 14.8732 14.6091 14.8732 14.6254 14.8732C15.9866 14.8732 17.5112 16.9271 18.0445 17.8878C18.1978 18.1642 18.4845 18.3327 18.7945 18.3327H20.8665C21.4711 18.3327 21.859 17.6679 21.5678 17.1241Z" fill="white"/>
</svg>
