<svg width="92" height="23" viewBox="0 0 92 23" fill="none" xmlns="http://www.w3.org/2000/svg">
    <g clip-path="url(#clip0_2534_1457)">
        <path fill-rule="evenodd" clip-rule="evenodd" d="M49.4639 5.57021C49.6852 5.8017 51.6767 11.3168 51.885 11.9977C52.0923 12.7272 52.3853 13.427 52.757 14.0812C53.4469 14.2446 53.512 13.5228 53.7203 12.9509C54.8527 9.85973 56.5709 5.35233 57.4299 2.31562C58.0287 0.844924 58.0808 0.450016 57.0004 0.450016C55.92 0.450016 56.0372 1.18536 55.6076 2.13859C55.2302 3.94972 53.7723 7.77625 53.2387 9.53291C53.2387 9.7644 53.2387 9.7644 52.9653 9.7644C52.0672 7.14984 51.0259 3.94972 50.0106 1.36239C49.7372 0.858542 49.2556 0.749601 48.9302 1.87986C48.3835 3.67737 47.6286 5.81532 47.0428 7.55837C47.0428 7.55837 46.34 9.7644 46.2879 9.87334C45.9156 9.24719 45.6431 8.56193 45.4809 7.84433C44.6739 5.76085 43.971 3.51396 43.2811 1.43048C43.1119 1.03557 43.1119 0.804071 42.7344 0.572574C42.3561 0.425889 41.947 0.388264 41.5499 0.463633C40.4826 0.640661 41.1724 1.53942 41.3937 2.20668C42.6954 5.86979 44.1402 10.2683 45.585 13.7543C45.6188 13.8407 45.6738 13.9162 45.7444 13.9733C45.815 14.0304 45.8988 14.067 45.9872 14.0794C46.0756 14.0918 46.1656 14.0797 46.2481 14.0441C46.3306 14.0086 46.4027 13.9509 46.4571 13.8769C46.6654 13.4548 49.3077 5.57021 49.4639 5.57021Z" fill="white"/>
        <path fill-rule="evenodd" clip-rule="evenodd" d="M0.209469 0.679927C0.155663 0.906777 0.17394 1.14579 0.261535 1.3608C0.482814 2.31403 -0.168007 13.1808 0.00120631 13.6166C0.528078 13.8644 1.11879 13.9219 1.68032 13.78C1.94065 13.494 1.83652 13.2217 1.83652 12.7723C1.83652 10.8522 1.99272 9.00024 1.99272 7.02569C2.0578 6.29035 2.10987 5.7865 2.10987 5.33712C2.10987 4.88774 2.10987 4.94221 2.214 4.83327C2.31813 4.72433 4.02328 7.82913 4.19249 8.16957C4.5179 8.83683 5.15571 9.85814 5.58525 10.648C6.23607 11.8872 6.56148 11.0429 6.71768 10.7569C7.09515 10.253 10.0108 4.90136 10.2191 4.79242C10.4143 5.0103 10.4143 10.362 10.4143 10.7569C10.4143 13.6847 10.0889 13.9706 11.8592 13.8481C12.4058 13.8481 12.4579 13.3987 12.4058 12.8948C12.4058 11.9416 12.4058 10.8658 12.4058 9.91261C12.2627 7.48869 12.1585 4.72433 12.1585 2.31403C12.1585 2.02806 12.2627 0.952278 12.2627 0.788868C12.1033 0.601006 11.8875 0.475666 11.6508 0.433572C11.4141 0.391478 11.1708 0.435151 10.961 0.55737C10.5836 0.788868 10.4794 1.29272 10.2061 1.63315C9.1127 3.66217 7.64184 5.96353 6.61354 7.8836C6.23607 8.56448 6.23607 8.33298 5.91066 7.8836C5.20777 6.80781 4.29662 4.95583 3.65882 3.88005L2.35718 1.63315C2.17625 1.24269 1.94405 0.88059 1.66731 0.55737C1.30285 0.285019 0.586945 0.5029 0.209469 0.679927Z" fill="white"/>
        <path fill-rule="evenodd" clip-rule="evenodd" d="M68.8937 6.98585C69.3544 6.59259 69.9009 6.32462 70.4846 6.20583C71.0682 6.08703 71.6709 6.12109 72.2389 6.30497C73.9571 7.09479 74.1784 9.75021 73.4234 11.0439C73.1019 11.548 72.6387 11.9354 72.0978 12.1525C71.5569 12.3696 70.9649 12.4057 70.4036 12.2558C69.8598 12.1436 69.3451 11.9115 68.8937 11.575V6.98585ZM68.8937 5.06578C68.8125 3.58268 68.8125 2.09594 68.8937 0.612846C68.8937 5.78174e-05 68.6854 -0.108882 68.1387 0.108998C66.8371 0.680934 66.8371 0.449436 67.0193 1.68863C67.1235 2.31504 67.0193 9.57318 67.0193 10.5945C67.0193 12.6099 66.746 13.0729 69.5445 13.9172C70.3414 14.092 71.1638 14.0965 71.9624 13.9303C72.7609 13.7642 73.5191 13.4308 74.1914 12.9503C76.9378 10.5945 76.1829 3.94914 71.1716 4.45299C70.7347 4.47772 70.2999 4.53231 69.8699 4.6164C69.7007 4.67087 69.0629 5.06578 68.9848 5.06578H68.8937Z" fill="white"/>
        <path fill-rule="evenodd" clip-rule="evenodd" d="M30.9398 13.7399C31.1434 13.0298 31.2011 12.2826 31.1091 11.5475C31.0558 10.7769 31.0558 10.0032 31.1091 9.23255C31.2652 9.23255 31.4345 9.51852 31.7599 9.85895C32.0853 10.1994 34.7667 13.1272 35.1962 13.454C35.3461 13.5999 35.5267 13.7068 35.7235 13.7659C35.9203 13.8251 36.1276 13.8348 36.3286 13.7944C36.7061 13.7944 37.3049 13.7944 37.5131 13.5221C37.5131 13.1272 36.7582 12.5008 36.4328 12.1603C36.1074 11.8199 35.6908 11.3841 35.3134 10.9211C34.4854 10.1588 33.7111 9.33512 32.9964 8.45635C32.9964 8.33379 35.9512 5.73284 36.4978 5.24261C36.7061 5.01111 36.9274 4.95664 36.8753 4.61621C36.2054 4.39999 35.4887 4.39999 34.8187 4.61621C34.5584 4.73876 32.7752 6.42734 32.2935 6.87672C32.1373 7.04013 31.2132 8.06144 31.1091 8.00697C30.9529 7.4895 31.1091 0.449243 31.0049 0.0543347C30.9008 -0.340574 29.0655 0.285833 29.1175 0.966709C29.2196 1.4451 29.272 1.93363 29.2737 2.42378V12.1603C29.2737 12.5008 29.1696 13.5221 29.3909 13.6855C29.8973 13.8209 30.4259 13.8395 30.9398 13.7399Z" fill="white"/>
        <path fill-rule="evenodd" clip-rule="evenodd" d="M16.9168 9.12384C17.5155 8.96043 19.5201 9.46428 19.6112 10.0226C19.6632 10.6251 19.6632 11.2312 19.6112 11.8337C19.2337 12.3376 16.6434 13.3453 15.7844 11.5478C15.6686 11.2924 15.6085 11.0133 15.6085 10.7307C15.6085 10.4481 15.6686 10.169 15.7844 9.91366C15.9094 9.70604 16.0748 9.52837 16.27 9.39226C16.4651 9.25616 16.6855 9.16469 16.9168 9.12384ZM19.6633 8.44297C19.1575 8.09242 18.5918 7.84736 17.9972 7.72124C17.2562 7.6354 16.5065 7.69076 15.7844 7.88465C15.1764 8.06683 14.6403 8.4483 14.2549 8.97298C13.8696 9.49765 13.6553 10.1378 13.6437 10.7994C13.632 11.4609 13.8236 12.1089 14.1902 12.6481C14.5568 13.1873 15.0791 13.5892 15.6802 13.7947C16.7098 14.1619 17.8267 14.1619 18.8562 13.7947C19.0775 13.6857 19.5071 13.3997 19.6633 13.3453C19.8195 13.2908 19.8845 13.7402 20.0928 13.8491C20.3011 13.9581 21.2773 13.8491 21.5506 13.5768C21.824 13.3044 21.876 13.3453 21.7068 12.9504C21.455 12.4293 21.364 11.8393 21.4465 11.2618V7.20377C21.5146 6.62918 21.3804 6.04831 21.069 5.56967C20.0407 3.43172 13.8449 4.276 14.3395 6.08714C14.8342 7.89827 15.6412 5.46073 18.3746 5.80117C19.8455 5.96458 19.6893 7.43527 19.6893 8.44297H19.6633Z" fill="white"/>
        <path fill-rule="evenodd" clip-rule="evenodd" d="M83.3836 8.17063H78.9189C78.9788 7.6115 79.2227 7.09155 79.6088 6.69994C80.0303 6.31324 80.5599 6.07921 81.1187 6.03268C81.4098 6.00753 81.7027 6.044 81.9801 6.13993C82.2574 6.23586 82.5134 6.38927 82.7327 6.591C82.9536 6.78109 83.1279 7.02359 83.2411 7.29834C83.3542 7.57309 83.4031 7.87215 83.3836 8.17063ZM78.8018 9.62771C79.1272 9.4643 84.0083 9.62771 84.8935 9.62771C85.7786 9.62771 85.3751 6.591 83.761 5.35181C83.1016 4.83751 82.3167 4.52879 81.4967 4.46132C80.6768 4.39384 79.8553 4.57034 79.1271 4.97046C78.399 5.37057 77.7938 5.97797 77.3816 6.72253C76.9693 7.4671 76.7668 8.31846 76.7973 9.17833C76.7664 10.0135 76.9521 10.8418 77.3348 11.5754C77.7175 12.3091 78.2829 12.9207 78.971 13.3453C80.4158 14.3666 84.2947 14.3121 84.7763 12.7325C85.3751 10.7035 83.9693 11.8337 83.4747 12.0516C83.0587 12.23 82.6203 12.3447 82.173 12.3921C79.2964 12.7325 78.5935 10.0771 78.8018 9.62771Z" fill="white"/>
        <path fill-rule="evenodd" clip-rule="evenodd" d="M59.2615 8.16833C59.3072 7.58671 59.5599 7.04423 59.9697 6.64829C60.3795 6.25236 60.9165 6.03183 61.4743 6.03038C62.5937 5.90782 63.8954 6.92913 63.6741 8.16833H59.2615ZM59.0402 9.53008C59.3136 9.53008 64.377 9.53008 65.0799 9.53008C65.7827 9.53008 65.6656 9.0807 65.6135 8.52239C65.5755 7.76628 65.3504 7.03347 64.9603 6.39574C64.5701 5.75801 64.0283 5.23724 63.388 4.88442C62.7476 4.53161 62.0307 4.35886 61.3073 4.3831C60.5839 4.40734 59.879 4.62773 59.2615 5.02268C58.5672 5.45181 57.9994 6.07286 57.6205 6.81759C57.2416 7.56233 57.0663 8.40192 57.1138 9.24411C57.0586 10.0755 57.2375 10.9055 57.6285 11.6316C58.0195 12.3577 58.6053 12.948 59.3136 13.3294C61.1489 14.5141 64.7544 14.0102 65.0799 12.6621C65.0799 12.2672 65.3402 11.3004 64.7544 11.5319C64.0469 11.9503 63.2767 12.2404 62.4766 12.3898C62.05 12.4494 61.6164 12.4199 61.2009 12.303C60.7853 12.1862 60.396 11.9842 60.0555 11.7089C59.5869 11.314 58.832 10.1293 59.0402 9.53008Z" fill="white"/>
        <path fill-rule="evenodd" clip-rule="evenodd" d="M88.275 13.7947C88.6004 13.4543 88.5483 13.2909 88.5483 12.7871V11.4253C88.5483 9.62779 88.2229 6.64555 90.2144 6.19617C90.644 6.08723 90.7481 6.46852 91.2948 6.35958C91.6172 6.05698 91.8593 5.67232 91.9977 5.24294C91.9977 4.38504 90.696 4.22163 89.5116 4.77995C89.1341 4.95697 88.8217 5.56976 88.5483 5.62423C88.5483 5.12038 88.6525 4.9025 88.3271 4.45312C87.9098 4.49498 87.506 4.62962 87.1426 4.84803C86.6089 5.12038 86.5048 5.12038 86.6089 5.80126C86.713 6.48214 86.6089 11.1529 86.6089 12.2696C86.661 13.9718 86.661 13.9173 88.275 13.7947Z" fill="white"/>
        <path fill-rule="evenodd" clip-rule="evenodd" d="M24.8097 13.7402V13.6313C24.9608 12.2482 25 10.8543 24.9268 9.46435C24.9268 8.38856 25.1872 6.64552 26.3196 6.30508C27.2307 5.96464 27.2828 6.8634 27.8816 6.30508C29.2743 4.77992 27.3999 4.16713 26.2675 4.67098C25.1351 5.17483 25.2913 5.56973 24.9659 5.67867C24.9397 5.4571 24.9397 5.23299 24.9659 5.01142C24.9659 4.72545 24.8487 4.72545 24.7446 4.56204C24.3272 4.55848 23.9172 4.67635 23.5601 4.90248C23.0264 5.12036 22.8572 5.17483 23.0264 5.8557C23.1409 6.8997 23.1758 7.95157 23.1306 9.00135V12.1061C23.2477 13.7947 23.0264 13.9173 24.8097 13.7402Z" fill="white"/>
        <path fill-rule="evenodd" clip-rule="evenodd" d="M49.0869 15.5511C46.9381 15.8284 44.8253 16.3536 42.7869 17.1171C42.1491 17.403 41.4853 17.5665 40.8475 17.8524C39.5458 18.3563 38.3223 18.8057 37.0337 19.3231C36.6041 19.4865 33.5323 20.4398 32.9986 20.5623C30.3953 21.2296 26.4904 22.0194 24.0042 20.8347C22.8198 20.2219 22.7026 22.1283 25.397 22.8092C26.9727 23.0979 28.5896 23.0235 30.135 22.5913C31.4366 22.3054 32.9986 21.8015 34.2351 21.4066C35.4717 21.0117 36.9295 20.5623 38.2702 20.1674C38.5956 20.0448 38.856 19.9359 39.2334 19.827L41.225 19.2006C41.6024 19.0916 41.8758 18.9282 42.2012 18.8057L44.2578 18.3018C44.6353 18.1929 44.9086 18.0839 45.234 17.9614C47.9593 17.3531 50.7389 17.0518 53.5255 17.0626C54.2153 17.0626 55.2436 17.2396 55.9465 17.3486C57.2482 17.512 56.9618 16.7903 56.1027 16.3273C53.869 15.4319 51.4501 15.1643 49.0869 15.5511Z" fill="white"/>
    </g>
    <defs>
        <clipPath id="clip0_2534_1457">
            <rect width="92" height="23" fill="white"/>
        </clipPath>
    </defs>
</svg>
