<svg width="28" height="28" viewBox="0 0 28 28" fill="none" xmlns="http://www.w3.org/2000/svg">
    <rect width="28" height="28" rx="4" fill="#E2E9F0"/>
    <path fill-rule="evenodd" clip-rule="evenodd" d="M17.6686 17.5733C18.3669 17.5733 18.9335 17.0084 18.9358 16.3101V16.3101V16.3101C18.9353 15.9548 18.7935 15.6143 18.5416 15.3637L17.7019 14.5233V12.027C17.7017 11.0457 17.3115 10.1048 16.6173 9.41142C15.923 8.71802 14.9816 8.32902 14.0004 8.33008V8.33008C11.9593 8.33119 10.3052 9.9859 10.3048 12.027V14.5213L9.46514 15.3617C9.21306 15.6122 9.071 15.9527 9.07031 16.3081V16.3081V16.3081C9.07252 17.0064 9.63921 17.5713 10.3375 17.5713L17.6686 17.5733Z" stroke="#304659" stroke-linecap="round" stroke-linejoin="round"/>
    <path d="M13.0137 19.6694H14.9858" stroke="#304659" stroke-linecap="round" stroke-linejoin="round"/>
</svg>
