<svg width="25" height="25" viewBox="0 0 25 25" fill="none" xmlns="http://www.w3.org/2000/svg">
    <path d="M3.2678 12.1577L7.67863 13.8039L9.38589 19.2945C9.49513 19.6461 9.92514 19.7761 10.2106 19.5427L12.6692 17.5384C12.9269 17.3284 13.294 17.3179 13.5634 17.5134L17.9979 20.733C18.3033 20.955 18.7358 20.7877 18.8124 20.4187L22.0609 4.79258C22.1445 4.38957 21.7485 4.05336 21.3648 4.20178L3.26263 11.185C2.81591 11.3573 2.8198 11.9898 3.2678 12.1577ZM9.11075 12.9276L17.7311 7.61828C17.8861 7.52314 18.0455 7.73262 17.9124 7.85603L10.7981 14.4691C10.548 14.7019 10.3867 15.0134 10.341 15.3516L10.0987 17.1475C10.0666 17.3873 9.72975 17.4111 9.66358 17.179L8.73153 13.9041C8.62478 13.5305 8.78035 13.1315 9.11075 12.9276Z" fill="white"/>
</svg>
