<svg width="25" height="25" viewBox="0 0 25 25" fill="none" xmlns="http://www.w3.org/2000/svg">
    <path d="M12.5116 3.33398C7.4639 3.33398 3.35478 7.43916 3.35295 12.4863C3.35203 14.0997 3.77464 15.6747 4.57589 17.0625L3.33325 21.6673L8.13011 20.534C9.46765 21.2637 10.9734 21.6467 12.5062 21.6476H12.5098C17.5565 21.6476 21.6638 17.5415 21.6666 12.4953C21.6684 10.0487 20.7169 7.74841 18.9879 6.01774C17.2589 4.28799 14.9611 3.3349 12.5116 3.33398ZM12.5098 5.16732C14.468 5.16823 16.3082 5.93163 17.6916 7.31396C19.075 8.69813 19.8349 10.5373 19.8331 12.4935C19.8312 16.5305 16.5472 19.8143 12.508 19.8143C11.2859 19.8134 10.0754 19.5066 9.00926 18.9245L8.39153 18.5879L7.70933 18.749L5.90447 19.1751L6.34494 17.5387L6.54369 16.8047L6.16409 16.1458C5.5242 15.0385 5.18554 13.7724 5.18646 12.4863C5.18829 8.45116 8.47329 5.16732 12.5098 5.16732ZM9.27068 8.26107C9.11758 8.26107 8.87004 8.31836 8.66011 8.54753C8.45017 8.77578 7.85795 9.3286 7.85795 10.4543C7.85795 11.5799 8.67801 12.668 8.79261 12.8211C8.90628 12.9733 10.3755 15.3563 12.7014 16.2729C14.6339 17.0347 15.0264 16.8844 15.4463 16.8459C15.8661 16.8083 16.8008 16.2935 16.9915 15.7591C17.1822 15.2247 17.1826 14.765 17.1258 14.6706C17.0689 14.5752 16.9163 14.5184 16.6871 14.4038C16.4588 14.2892 15.3339 13.7369 15.124 13.6608C14.914 13.5847 14.7605 13.5462 14.6083 13.7754C14.4561 14.0046 14.0187 14.5184 13.8849 14.6706C13.7511 14.8237 13.6181 14.8442 13.3889 14.7297C13.1597 14.6142 12.4228 14.3719 11.5482 13.5928C10.868 12.9869 10.409 12.2393 10.2752 12.0101C10.1422 11.7818 10.2626 11.6565 10.3772 11.5428C10.4799 11.4401 10.6046 11.2756 10.7192 11.1418C10.8329 11.0079 10.8723 10.9126 10.9484 10.7604C11.0245 10.6082 10.9856 10.474 10.9287 10.3594C10.8719 10.2448 10.4268 9.11494 10.2232 8.66211C10.0518 8.28169 9.87076 8.27286 9.70757 8.26644C9.57464 8.26094 9.42286 8.26107 9.27068 8.26107Z" fill="white"/>
</svg>
