<svg width="396" height="29" viewBox="0 0 396 29" fill="none" xmlns="http://www.w3.org/2000/svg">
<path d="M10.156 9.878L6.068 18.593C5.92333 18.8963 5.76933 19.146 5.606 19.342C5.44267 19.538 5.26533 19.692 5.074 19.804C4.88733 19.916 4.68433 19.993 4.465 20.035C4.25033 20.0817 4.01933 20.105 3.772 20.105C3.436 20.105 3.191 20.0747 3.037 20.014C2.883 19.9533 2.806 19.8647 2.806 19.748V18.572H3.352C3.45467 18.572 3.55967 18.5627 3.667 18.544C3.77433 18.5253 3.87933 18.488 3.982 18.432C4.08933 18.376 4.192 18.2967 4.29 18.194C4.388 18.0913 4.479 17.956 4.563 17.788L4.962 16.976L0.902 9.878H2.666C2.82933 9.878 2.96 9.91767 3.058 9.997C3.156 10.0763 3.23767 10.1767 3.303 10.298L5.27 14.008C5.37733 14.2133 5.473 14.4163 5.557 14.617C5.64567 14.8177 5.72267 15.023 5.788 15.233C5.90933 14.813 6.06567 14.4047 6.257 14.008L7.972 10.298C8.02333 10.1953 8.10033 10.0997 8.203 10.011C8.30567 9.92233 8.43633 9.878 8.595 9.878H10.156ZM16.1511 12.818V20H14.4221V16.822H11.6221V20H9.89306V12.818H11.6221V15.541H14.4221V12.818H16.1511ZM24.3178 12.818V20H22.5888V15.807C22.5888 15.6997 22.5934 15.583 22.6028 15.457C22.6168 15.3263 22.6331 15.1957 22.6518 15.065C22.5584 15.2797 22.4558 15.4687 22.3438 15.632C22.3344 15.6413 22.2878 15.7067 22.2038 15.828C22.1198 15.9447 22.0101 16.0963 21.8748 16.283C21.7441 16.4697 21.5948 16.682 21.4268 16.92C21.2588 17.1533 21.0884 17.3913 20.9158 17.634C20.5098 18.208 20.0501 18.8567 19.5368 19.58C19.4714 19.678 19.3851 19.7737 19.2778 19.867C19.1751 19.9603 19.0561 20.007 18.9208 20.007H17.8638V12.825H19.5928V17.018C19.5928 17.1253 19.5858 17.2443 19.5718 17.375C19.5624 17.501 19.5484 17.6293 19.5298 17.76C19.6324 17.5313 19.7351 17.3423 19.8378 17.193C19.8424 17.1837 19.8868 17.1207 19.9708 17.004C20.0548 16.8873 20.1621 16.7357 20.2928 16.549C20.4281 16.3623 20.5798 16.1523 20.7478 15.919C20.9158 15.681 21.0861 15.4383 21.2588 15.191C21.6648 14.617 22.1268 13.9683 22.6448 13.245C22.7101 13.1423 22.7964 13.0467 22.9038 12.958C23.0111 12.8647 23.1324 12.818 23.2678 12.818H24.3178ZM28.9589 18.817C29.3229 18.817 29.6099 18.7283 29.8199 18.551C30.0345 18.3737 30.1419 18.131 30.1419 17.823C30.1419 17.6923 30.1232 17.571 30.0859 17.459C30.0532 17.3423 29.9925 17.242 29.9039 17.158C29.8152 17.074 29.6939 17.0087 29.5399 16.962C29.3905 16.9153 29.1992 16.892 28.9659 16.892H27.6709V18.817H28.9589ZM27.6709 13.945V15.828H28.8049C28.9729 15.828 29.1269 15.8047 29.2669 15.758C29.4069 15.7067 29.5282 15.6367 29.6309 15.548C29.7335 15.4547 29.8129 15.3473 29.8689 15.226C29.9249 15.1 29.9529 14.9623 29.9529 14.813C29.9529 14.7057 29.9342 14.6007 29.8969 14.498C29.8595 14.3907 29.7965 14.2973 29.7079 14.218C29.6192 14.134 29.5002 14.0687 29.3509 14.022C29.2062 13.9707 29.0242 13.945 28.8049 13.945H27.6709ZM28.8539 12.818C29.3065 12.818 29.6962 12.8623 30.0229 12.951C30.3542 13.0397 30.6272 13.161 30.8419 13.315C31.0565 13.469 31.2152 13.6533 31.3179 13.868C31.4205 14.078 31.4719 14.3067 31.4719 14.554C31.4719 14.708 31.4509 14.869 31.4089 15.037C31.3715 15.2003 31.3015 15.359 31.1989 15.513C31.1009 15.667 30.9655 15.807 30.7929 15.933C30.6202 16.059 30.4009 16.157 30.1349 16.227C30.3729 16.2783 30.5899 16.3507 30.7859 16.444C30.9819 16.5327 31.1499 16.647 31.2899 16.787C31.4299 16.9223 31.5372 17.0833 31.6119 17.27C31.6912 17.452 31.7309 17.6573 31.7309 17.886C31.7309 18.25 31.6539 18.565 31.4999 18.831C31.3505 19.097 31.1475 19.3163 30.8909 19.489C30.6389 19.6617 30.3449 19.79 30.0089 19.874C29.6775 19.958 29.3299 20 28.9659 20H26.0259V12.818H28.8539ZM37.6939 15.583C37.6939 15.359 37.6612 15.149 37.5959 14.953C37.5352 14.7523 37.4419 14.5773 37.3159 14.428C37.1899 14.2787 37.0289 14.162 36.8329 14.078C36.6416 13.9893 36.4176 13.945 36.1609 13.945C35.6616 13.945 35.2672 14.0873 34.9779 14.372C34.6932 14.6567 34.5112 15.0603 34.4319 15.583H37.6939ZM34.3969 16.626C34.4249 16.9947 34.4902 17.3143 34.5929 17.585C34.6956 17.851 34.8309 18.0727 34.9989 18.25C35.1669 18.4227 35.3652 18.5533 35.5939 18.642C35.8272 18.726 36.0839 18.768 36.3639 18.768C36.6439 18.768 36.8842 18.7353 37.0849 18.67C37.2902 18.6047 37.4676 18.5323 37.6169 18.453C37.7709 18.3737 37.9039 18.3013 38.0159 18.236C38.1326 18.1707 38.2446 18.138 38.3519 18.138C38.4966 18.138 38.6039 18.1917 38.6739 18.299L39.1709 18.929C38.9796 19.153 38.7649 19.342 38.5269 19.496C38.2889 19.6453 38.0392 19.7667 37.7779 19.86C37.5212 19.9487 37.2576 20.0117 36.9869 20.049C36.7209 20.0863 36.4619 20.105 36.2099 20.105C35.7106 20.105 35.2462 20.0233 34.8169 19.86C34.3876 19.692 34.0142 19.447 33.6969 19.125C33.3796 18.7983 33.1299 18.397 32.9479 17.921C32.7659 17.4403 32.6749 16.885 32.6749 16.255C32.6749 15.765 32.7542 15.3053 32.9129 14.876C33.0716 14.442 33.2979 14.0663 33.5919 13.749C33.8906 13.427 34.2522 13.1727 34.6769 12.986C35.1062 12.7993 35.5892 12.706 36.1259 12.706C36.5786 12.706 36.9962 12.7783 37.3789 12.923C37.7616 13.0677 38.0906 13.28 38.3659 13.56C38.6412 13.8353 38.8559 14.176 39.0099 14.582C39.1686 14.9833 39.2479 15.443 39.2479 15.961C39.2479 16.2223 39.2199 16.3997 39.1639 16.493C39.1079 16.5817 39.0006 16.626 38.8419 16.626H34.3969ZM42.2744 18.138C42.4704 18.376 42.6827 18.544 42.9114 18.642C43.1447 18.74 43.3967 18.789 43.6674 18.789C43.9287 18.789 44.1644 18.74 44.3744 18.642C44.5844 18.544 44.7617 18.3947 44.9064 18.194C45.0557 17.9933 45.1701 17.7413 45.2494 17.438C45.3287 17.13 45.3684 16.7683 45.3684 16.353C45.3684 15.933 45.3334 15.5783 45.2634 15.289C45.1981 14.995 45.1024 14.757 44.9764 14.575C44.8504 14.393 44.6964 14.26 44.5144 14.176C44.3371 14.092 44.1341 14.05 43.9054 14.05C43.5461 14.05 43.2404 14.127 42.9884 14.281C42.7364 14.4303 42.4984 14.6427 42.2744 14.918V18.138ZM42.1834 13.798C42.4774 13.4667 42.8111 13.1983 43.1844 12.993C43.5577 12.7877 43.9964 12.685 44.5004 12.685C44.8924 12.685 45.2494 12.7667 45.5714 12.93C45.8981 13.0933 46.1781 13.3313 46.4114 13.644C46.6494 13.952 46.8314 14.3347 46.9574 14.792C47.0881 15.2447 47.1534 15.765 47.1534 16.353C47.1534 16.8897 47.0811 17.3867 46.9364 17.844C46.7917 18.3013 46.5841 18.698 46.3134 19.034C46.0474 19.37 45.7231 19.6337 45.3404 19.825C44.9624 20.0117 44.5377 20.105 44.0664 20.105C43.6651 20.105 43.3221 20.0443 43.0374 19.923C42.7527 19.797 42.4984 19.6243 42.2744 19.405V22.345H40.5454V12.818H41.6024C41.8264 12.818 41.9734 12.923 42.0434 13.133L42.1834 13.798ZM53.6338 14.337C53.5824 14.4023 53.5311 14.4537 53.4798 14.491C53.4331 14.5283 53.3631 14.547 53.2698 14.547C53.1811 14.547 53.0948 14.5213 53.0108 14.47C52.9268 14.414 52.8264 14.3533 52.7098 14.288C52.5931 14.218 52.4531 14.1573 52.2898 14.106C52.1311 14.05 51.9328 14.022 51.6948 14.022C51.3914 14.022 51.1254 14.078 50.8968 14.19C50.6681 14.2973 50.4768 14.4537 50.3228 14.659C50.1734 14.8643 50.0614 15.114 49.9868 15.408C49.9121 15.6973 49.8748 16.0263 49.8748 16.395C49.8748 16.7777 49.9144 17.1183 49.9938 17.417C50.0778 17.7157 50.1968 17.9677 50.3508 18.173C50.5048 18.3737 50.6914 18.5277 50.9108 18.635C51.1301 18.7377 51.3774 18.789 51.6528 18.789C51.9281 18.789 52.1498 18.7563 52.3178 18.691C52.4904 18.621 52.6351 18.5463 52.7518 18.467C52.8684 18.383 52.9688 18.3083 53.0528 18.243C53.1414 18.173 53.2394 18.138 53.3468 18.138C53.4868 18.138 53.5918 18.1917 53.6618 18.299L54.1588 18.929C53.9674 19.153 53.7598 19.342 53.5358 19.496C53.3118 19.6453 53.0784 19.7667 52.8358 19.86C52.5978 19.9487 52.3504 20.0117 52.0938 20.049C51.8418 20.0863 51.5898 20.105 51.3378 20.105C50.8944 20.105 50.4768 20.0233 50.0848 19.86C49.6928 19.692 49.3498 19.4493 49.0558 19.132C48.7618 18.8147 48.5284 18.4273 48.3558 17.97C48.1878 17.508 48.1038 16.983 48.1038 16.395C48.1038 15.8677 48.1784 15.38 48.3278 14.932C48.4818 14.4793 48.7058 14.0897 48.9998 13.763C49.2938 13.4317 49.6578 13.1727 50.0918 12.986C50.5258 12.7993 51.0251 12.706 51.5898 12.706C52.1264 12.706 52.5954 12.7923 52.9968 12.965C53.4028 13.1377 53.7668 13.385 54.0888 13.707L53.6338 14.337ZM61.6967 12.818V20H59.9677V15.807C59.9677 15.6997 59.9723 15.583 59.9817 15.457C59.9957 15.3263 60.012 15.1957 60.0307 15.065C59.9373 15.2797 59.8347 15.4687 59.7227 15.632C59.7133 15.6413 59.6667 15.7067 59.5827 15.828C59.4987 15.9447 59.389 16.0963 59.2537 16.283C59.123 16.4697 58.9737 16.682 58.8057 16.92C58.6377 17.1533 58.4673 17.3913 58.2947 17.634C57.8887 18.208 57.429 18.8567 56.9157 19.58C56.8503 19.678 56.764 19.7737 56.6567 19.867C56.554 19.9603 56.435 20.007 56.2997 20.007H55.2427V12.825H56.9717V17.018C56.9717 17.1253 56.9647 17.2443 56.9507 17.375C56.9413 17.501 56.9273 17.6293 56.9087 17.76C57.0113 17.5313 57.114 17.3423 57.2167 17.193C57.2213 17.1837 57.2657 17.1207 57.3497 17.004C57.4337 16.8873 57.541 16.7357 57.6717 16.549C57.807 16.3623 57.9587 16.1523 58.1267 15.919C58.2947 15.681 58.465 15.4383 58.6377 15.191C59.0437 14.617 59.5057 13.9683 60.0237 13.245C60.089 13.1423 60.1753 13.0467 60.2827 12.958C60.39 12.8647 60.5113 12.818 60.6467 12.818H61.6967ZM69.5648 14.099H67.0028V20H65.2738V14.099H62.7188V12.818H69.5648V14.099ZM75.0044 15.583C75.0044 15.359 74.9718 15.149 74.9064 14.953C74.8458 14.7523 74.7524 14.5773 74.6264 14.428C74.5004 14.2787 74.3394 14.162 74.1434 14.078C73.9521 13.9893 73.7281 13.945 73.4714 13.945C72.9721 13.945 72.5778 14.0873 72.2884 14.372C72.0038 14.6567 71.8218 15.0603 71.7424 15.583H75.0044ZM71.7074 16.626C71.7354 16.9947 71.8008 17.3143 71.9034 17.585C72.0061 17.851 72.1414 18.0727 72.3094 18.25C72.4774 18.4227 72.6758 18.5533 72.9044 18.642C73.1378 18.726 73.3944 18.768 73.6744 18.768C73.9544 18.768 74.1948 18.7353 74.3954 18.67C74.6008 18.6047 74.7781 18.5323 74.9274 18.453C75.0814 18.3737 75.2144 18.3013 75.3264 18.236C75.4431 18.1707 75.5551 18.138 75.6624 18.138C75.8071 18.138 75.9144 18.1917 75.9844 18.299L76.4814 18.929C76.2901 19.153 76.0754 19.342 75.8374 19.496C75.5994 19.6453 75.3498 19.7667 75.0884 19.86C74.8318 19.9487 74.5681 20.0117 74.2974 20.049C74.0314 20.0863 73.7724 20.105 73.5204 20.105C73.0211 20.105 72.5568 20.0233 72.1274 19.86C71.6981 19.692 71.3248 19.447 71.0074 19.125C70.6901 18.7983 70.4404 18.397 70.2584 17.921C70.0764 17.4403 69.9854 16.885 69.9854 16.255C69.9854 15.765 70.0648 15.3053 70.2234 14.876C70.3821 14.442 70.6084 14.0663 70.9024 13.749C71.2011 13.427 71.5628 13.1727 71.9874 12.986C72.4168 12.7993 72.8998 12.706 73.4364 12.706C73.8891 12.706 74.3068 12.7783 74.6894 12.923C75.0721 13.0677 75.4011 13.28 75.6764 13.56C75.9518 13.8353 76.1664 14.176 76.3204 14.582C76.4791 14.9833 76.5584 15.443 76.5584 15.961C76.5584 16.2223 76.5304 16.3997 76.4744 16.493C76.4184 16.5817 76.3111 16.626 76.1524 16.626H71.7074ZM83.9613 14.099H81.3993V20H79.6703V14.099H77.1153V12.818H83.9613V14.099ZM97.1893 9.878V20H95.2993V13.658C95.2993 13.42 95.304 13.1703 95.3133 12.909C95.3273 12.6477 95.3553 12.37 95.3973 12.076C95.304 12.3373 95.2013 12.58 95.0893 12.804C94.982 13.0233 94.877 13.217 94.7743 13.385L90.9033 19.419C90.8613 19.489 90.81 19.559 90.7493 19.629C90.6933 19.699 90.6303 19.762 90.5603 19.818C90.4903 19.8693 90.4133 19.9137 90.3293 19.951C90.2453 19.9837 90.159 20 90.0703 20H88.6563V9.878H90.5463V16.22C90.5463 16.458 90.5393 16.71 90.5253 16.976C90.516 17.2373 90.4903 17.515 90.4483 17.809C90.5416 17.5477 90.642 17.305 90.7493 17.081C90.8613 16.857 90.971 16.661 91.0783 16.493L94.9423 10.459C94.9843 10.389 95.0333 10.319 95.0893 10.249C95.15 10.179 95.2153 10.1183 95.2853 10.067C95.3553 10.011 95.43 9.96667 95.5093 9.934C95.5933 9.89667 95.682 9.878 95.7753 9.878H97.1893ZM106.513 11.425H103.461V20H101.578V11.425H98.5264V9.878H106.513V11.425ZM118.814 9.878V20H117.155V13.462C117.155 13.2007 117.169 12.9183 117.197 12.615L114.138 18.362C113.993 18.6373 113.772 18.775 113.473 18.775H113.207C112.908 18.775 112.687 18.6373 112.542 18.362L109.448 12.594C109.462 12.748 109.474 12.8997 109.483 13.049C109.492 13.1983 109.497 13.336 109.497 13.462V20H107.838V9.878H109.259C109.343 9.878 109.415 9.88033 109.476 9.885C109.537 9.88967 109.59 9.90133 109.637 9.92C109.688 9.93867 109.733 9.969 109.77 10.011C109.812 10.053 109.852 10.109 109.889 10.179L112.92 15.8C112.999 15.9493 113.072 16.1033 113.137 16.262C113.207 16.4207 113.275 16.584 113.34 16.752C113.405 16.5793 113.473 16.4137 113.543 16.255C113.613 16.0917 113.688 15.9353 113.767 15.786L116.756 10.179C116.793 10.109 116.833 10.053 116.875 10.011C116.917 9.969 116.961 9.93867 117.008 9.92C117.059 9.90133 117.115 9.88967 117.176 9.885C117.237 9.88033 117.309 9.878 117.393 9.878H118.814ZM130.725 14.939C130.725 15.681 130.602 16.3693 130.354 17.004C130.112 17.634 129.766 18.18 129.318 18.642C128.87 19.104 128.331 19.4657 127.701 19.727C127.071 19.9837 126.371 20.112 125.601 20.112C124.836 20.112 124.138 19.9837 123.508 19.727C122.878 19.4657 122.337 19.104 121.884 18.642C121.436 18.18 121.089 17.634 120.841 17.004C120.594 16.3693 120.47 15.681 120.47 14.939C120.47 14.197 120.594 13.511 120.841 12.881C121.089 12.2463 121.436 11.698 121.884 11.236C122.337 10.774 122.878 10.4147 123.508 10.158C124.138 9.89667 124.836 9.766 125.601 9.766C126.115 9.766 126.598 9.82667 127.05 9.948C127.503 10.0647 127.918 10.2327 128.296 10.452C128.674 10.6667 129.013 10.9303 129.311 11.243C129.615 11.551 129.871 11.8963 130.081 12.279C130.291 12.6617 130.45 13.077 130.557 13.525C130.669 13.973 130.725 14.4443 130.725 14.939ZM128.8 14.939C128.8 14.3837 128.726 13.8867 128.576 13.448C128.427 13.0047 128.215 12.629 127.939 12.321C127.664 12.013 127.328 11.7773 126.931 11.614C126.539 11.4507 126.096 11.369 125.601 11.369C125.107 11.369 124.661 11.4507 124.264 11.614C123.872 11.7773 123.536 12.013 123.256 12.321C122.981 12.629 122.769 13.0047 122.619 13.448C122.47 13.8867 122.395 14.3837 122.395 14.939C122.395 15.4943 122.47 15.9937 122.619 16.437C122.769 16.8757 122.981 17.249 123.256 17.557C123.536 17.8603 123.872 18.0937 124.264 18.257C124.661 18.4203 125.107 18.502 125.601 18.502C126.096 18.502 126.539 18.4203 126.931 18.257C127.328 18.0937 127.664 17.8603 127.939 17.557C128.215 17.249 128.427 16.8757 128.576 16.437C128.726 15.9937 128.8 15.4943 128.8 14.939Z" fill="#304659"/>
<line x1="150.5" y1="2.18557e-08" x2="150.5" y2="29" stroke="#304659"/>
<path d="M174.524 17.34C174.883 17.3307 175.212 17.256 175.511 17.116C175.81 16.976 176.066 16.7893 176.281 16.556C176.496 16.318 176.661 16.0427 176.778 15.73C176.899 15.4127 176.96 15.072 176.96 14.708C176.96 14.3533 176.899 14.0197 176.778 13.707C176.661 13.3897 176.496 13.112 176.281 12.874C176.066 12.636 175.81 12.447 175.511 12.307C175.212 12.167 174.883 12.0923 174.524 12.083V17.34ZM172.739 12.083C172.375 12.0923 172.044 12.167 171.745 12.307C171.451 12.447 171.197 12.636 170.982 12.874C170.767 13.112 170.602 13.3897 170.485 13.707C170.368 14.0197 170.31 14.3533 170.31 14.708C170.31 15.072 170.368 15.4127 170.485 15.73C170.602 16.0427 170.767 16.318 170.982 16.556C171.197 16.7893 171.451 16.976 171.745 17.116C172.044 17.256 172.375 17.3307 172.739 17.34V12.083ZM174.524 10.634C175.154 10.6527 175.733 10.7717 176.26 10.991C176.787 11.2103 177.24 11.5043 177.618 11.873C178.001 12.2417 178.299 12.6687 178.514 13.154C178.729 13.6393 178.836 14.1573 178.836 14.708C178.836 15.2633 178.729 15.786 178.514 16.276C178.299 16.7613 178.001 17.1883 177.618 17.557C177.24 17.9257 176.787 18.2197 176.26 18.439C175.733 18.6583 175.154 18.7773 174.524 18.796V20H172.739V18.796C172.114 18.7773 171.537 18.6583 171.01 18.439C170.483 18.215 170.028 17.921 169.645 17.557C169.262 17.1883 168.964 16.7613 168.749 16.276C168.534 15.786 168.427 15.2633 168.427 14.708C168.427 14.1573 168.534 13.6393 168.749 13.154C168.964 12.6687 169.262 12.244 169.645 11.88C170.028 11.5113 170.483 11.2173 171.01 10.998C171.537 10.7787 172.114 10.6573 172.739 10.634V9.451H174.524V10.634ZM183.921 18.53C184.271 18.53 184.562 18.4927 184.796 18.418C185.034 18.3387 185.225 18.2313 185.37 18.096C185.514 17.9607 185.617 17.802 185.678 17.62C185.738 17.438 185.769 17.242 185.769 17.032C185.769 16.8033 185.738 16.5957 185.678 16.409C185.617 16.2223 185.514 16.066 185.37 15.94C185.225 15.8093 185.036 15.709 184.803 15.639C184.569 15.569 184.278 15.534 183.928 15.534H182.276V18.53H183.921ZM183.928 14.064C184.586 14.064 185.148 14.1363 185.615 14.281C186.086 14.4257 186.469 14.624 186.763 14.876C187.061 15.1233 187.281 15.4173 187.421 15.758C187.561 16.094 187.631 16.4557 187.631 16.843C187.631 17.319 187.547 17.7507 187.379 18.138C187.215 18.5253 186.975 18.859 186.658 19.139C186.34 19.4143 185.951 19.6267 185.489 19.776C185.031 19.9253 184.509 20 183.921 20H180.393V9.878H187.26V11.334H182.276V14.064H183.928ZM197.744 9.878V20H195.854V13.658C195.854 13.42 195.859 13.1703 195.868 12.909C195.882 12.6477 195.91 12.37 195.952 12.076C195.859 12.3373 195.756 12.58 195.644 12.804C195.537 13.0233 195.432 13.217 195.329 13.385L191.458 19.419C191.416 19.489 191.365 19.559 191.304 19.629C191.248 19.699 191.185 19.762 191.115 19.818C191.045 19.8693 190.968 19.9137 190.884 19.951C190.8 19.9837 190.714 20 190.625 20H189.211V9.878H191.101V16.22C191.101 16.458 191.094 16.71 191.08 16.976C191.071 17.2373 191.045 17.515 191.003 17.809C191.096 17.5477 191.197 17.305 191.304 17.081C191.416 16.857 191.526 16.661 191.633 16.493L195.497 10.459C195.539 10.389 195.588 10.319 195.644 10.249C195.705 10.179 195.77 10.1183 195.84 10.067C195.91 10.011 195.985 9.96667 196.064 9.934C196.148 9.89667 196.237 9.878 196.33 9.878H197.744ZM207.068 11.425H204.016V20H202.133V11.425H199.081V9.878H207.068V11.425Z" fill="#304659"/>
<path d="M234.37 5.335V12.5H233.52V7.235C233.52 7.165 233.522 7.09 233.525 7.01C233.532 6.93 233.538 6.84833 233.545 6.765L231.085 11.245C231.008 11.395 230.892 11.47 230.735 11.47H230.595C230.438 11.47 230.322 11.395 230.245 11.245L227.735 6.745C227.755 6.92167 227.765 7.085 227.765 7.235V12.5H226.915V5.335H227.63C227.717 5.335 227.783 5.34333 227.83 5.36C227.877 5.37667 227.922 5.42333 227.965 5.5L230.44 9.91C230.48 9.99 230.518 10.0733 230.555 10.16C230.595 10.2467 230.632 10.335 230.665 10.425C230.698 10.335 230.733 10.2467 230.77 10.16C230.807 10.07 230.847 9.985 230.89 9.905L233.32 5.5C233.36 5.42333 233.403 5.37667 233.45 5.36C233.5 5.34333 233.568 5.335 233.655 5.335H234.37ZM242.007 5.335V12.5H241.037V9.24H237.172V12.5H236.202V5.335H237.172V8.53H241.037V5.335H242.007ZM250.459 8.92C250.459 9.45667 250.374 9.95 250.204 10.4C250.034 10.8467 249.794 11.2317 249.484 11.555C249.174 11.8783 248.8 12.13 248.364 12.31C247.93 12.4867 247.45 12.575 246.924 12.575C246.397 12.575 245.917 12.4867 245.484 12.31C245.05 12.13 244.679 11.8783 244.369 11.555C244.059 11.2317 243.819 10.8467 243.649 10.4C243.479 9.95 243.394 9.45667 243.394 8.92C243.394 8.38333 243.479 7.89167 243.649 7.445C243.819 6.995 244.059 6.60833 244.369 6.285C244.679 5.95833 245.05 5.705 245.484 5.525C245.917 5.345 246.397 5.255 246.924 5.255C247.45 5.255 247.93 5.345 248.364 5.525C248.8 5.705 249.174 5.95833 249.484 6.285C249.794 6.60833 250.034 6.995 250.204 7.445C250.374 7.89167 250.459 8.38333 250.459 8.92ZM249.464 8.92C249.464 8.48 249.404 8.085 249.284 7.735C249.164 7.385 248.994 7.09 248.774 6.85C248.554 6.60667 248.287 6.42 247.974 6.29C247.66 6.16 247.31 6.095 246.924 6.095C246.54 6.095 246.192 6.16 245.879 6.29C245.565 6.42 245.297 6.60667 245.074 6.85C244.854 7.09 244.684 7.385 244.564 7.735C244.444 8.085 244.384 8.48 244.384 8.92C244.384 9.36 244.444 9.755 244.564 10.105C244.684 10.4517 244.854 10.7467 245.074 10.99C245.297 11.23 245.565 11.415 245.879 11.545C246.192 11.6717 246.54 11.735 246.924 11.735C247.31 11.735 247.66 11.6717 247.974 11.545C248.287 11.415 248.554 11.23 248.774 10.99C248.994 10.7467 249.164 10.4517 249.284 10.105C249.404 9.755 249.464 9.36 249.464 8.92ZM258.467 11.74V13.955C258.467 14.0417 258.437 14.1117 258.377 14.165C258.32 14.2183 258.247 14.245 258.157 14.245H257.577V12.5H251.847V5.335H252.817V11.74H256.397V5.335H257.372V11.74H258.467ZM263.418 11.34C263.465 11.4167 263.48 11.49 263.463 11.56C263.45 11.6267 263.405 11.6783 263.328 11.715L263.038 11.855L261.793 9.91V9.795L263.038 7.85L263.328 7.99C263.405 8.02667 263.45 8.08 263.463 8.15C263.48 8.21667 263.465 8.28833 263.418 8.365L262.628 9.67C262.581 9.75333 262.535 9.81333 262.488 9.85C262.535 9.89333 262.581 9.955 262.628 10.035L263.418 11.34ZM264.898 11.34C264.945 11.4167 264.96 11.49 264.943 11.56C264.93 11.6267 264.885 11.6783 264.808 11.715L264.518 11.855L263.273 9.91V9.795L264.518 7.85L264.808 7.99C264.885 8.02667 264.93 8.08 264.943 8.15C264.96 8.21667 264.945 8.28833 264.898 8.365L264.108 9.67C264.061 9.75333 264.015 9.81333 263.968 9.85C264.015 9.89333 264.061 9.955 264.108 10.035L264.898 11.34ZM268.85 11.73C269.127 11.73 269.363 11.6983 269.56 11.635C269.76 11.5717 269.922 11.485 270.045 11.375C270.172 11.2617 270.263 11.1267 270.32 10.97C270.38 10.81 270.41 10.635 270.41 10.445C270.41 10.245 270.38 10.0683 270.32 9.915C270.263 9.75833 270.172 9.62667 270.045 9.52C269.922 9.41 269.762 9.32833 269.565 9.275C269.368 9.21833 269.132 9.19 268.855 9.19H267.46V11.73H268.85ZM268.855 8.42C269.292 8.42 269.668 8.46833 269.985 8.565C270.302 8.65833 270.562 8.79167 270.765 8.965C270.972 9.135 271.123 9.33833 271.22 9.575C271.32 9.81167 271.37 10.07 271.37 10.35C271.37 10.68 271.313 10.9783 271.2 11.245C271.09 11.5083 270.927 11.7333 270.71 11.92C270.497 12.1067 270.233 12.25 269.92 12.35C269.607 12.45 269.25 12.5 268.85 12.5H266.495V5.335H271.125V6.1H267.46V8.42H268.855ZM275.847 9.415C275.847 9.20833 275.817 9.02 275.757 8.85C275.7 8.67667 275.615 8.52833 275.502 8.405C275.392 8.27833 275.257 8.18167 275.097 8.115C274.937 8.045 274.755 8.01 274.552 8.01C274.125 8.01 273.787 8.135 273.537 8.385C273.29 8.63167 273.137 8.975 273.077 9.415H275.847ZM276.567 11.79C276.457 11.9233 276.325 12.04 276.172 12.14C276.019 12.2367 275.854 12.3167 275.677 12.38C275.504 12.4433 275.324 12.49 275.137 12.52C274.95 12.5533 274.765 12.57 274.582 12.57C274.232 12.57 273.909 12.5117 273.612 12.395C273.319 12.275 273.064 12.1017 272.847 11.875C272.634 11.645 272.467 11.3617 272.347 11.025C272.227 10.6883 272.167 10.3017 272.167 9.865C272.167 9.51167 272.22 9.18167 272.327 8.875C272.437 8.56833 272.594 8.30333 272.797 8.08C273 7.85333 273.249 7.67667 273.542 7.55C273.835 7.42 274.165 7.355 274.532 7.355C274.835 7.355 275.115 7.40667 275.372 7.51C275.632 7.61 275.855 7.75667 276.042 7.95C276.232 8.14 276.38 8.37667 276.487 8.66C276.594 8.94 276.647 9.26 276.647 9.62C276.647 9.76 276.632 9.85333 276.602 9.9C276.572 9.94667 276.515 9.97 276.432 9.97H273.047C273.057 10.29 273.1 10.5683 273.177 10.805C273.257 11.0417 273.367 11.24 273.507 11.4C273.647 11.5567 273.814 11.675 274.007 11.755C274.2 11.8317 274.417 11.87 274.657 11.87C274.88 11.87 275.072 11.845 275.232 11.795C275.395 11.7417 275.535 11.685 275.652 11.625C275.769 11.565 275.865 11.51 275.942 11.46C276.022 11.4067 276.09 11.38 276.147 11.38C276.22 11.38 276.277 11.4083 276.317 11.465L276.567 11.79ZM277.42 7.955C277.61 7.775 277.84 7.63 278.11 7.52C278.383 7.41 278.712 7.355 279.095 7.355C279.402 7.355 279.672 7.39333 279.905 7.47C280.138 7.54333 280.333 7.64167 280.49 7.765C280.65 7.88833 280.77 8.03 280.85 8.19C280.933 8.34667 280.975 8.51 280.975 8.68C280.975 8.78 280.958 8.885 280.925 8.995C280.895 9.105 280.843 9.21 280.77 9.31C280.697 9.41 280.602 9.50333 280.485 9.59C280.368 9.67667 280.223 9.74667 280.05 9.8C280.373 9.89667 280.627 10.0517 280.81 10.265C280.997 10.4783 281.09 10.74 281.09 11.05C281.09 11.2833 281.037 11.495 280.93 11.685C280.823 11.8717 280.68 12.0317 280.5 12.165C280.32 12.295 280.11 12.395 279.87 12.465C279.633 12.535 279.385 12.57 279.125 12.57C278.962 12.57 278.795 12.555 278.625 12.525C278.458 12.495 278.295 12.4483 278.135 12.385C277.975 12.3183 277.823 12.2367 277.68 12.14C277.54 12.0433 277.415 11.9267 277.305 11.79L277.555 11.465C277.595 11.4083 277.652 11.38 277.725 11.38C277.785 11.38 277.848 11.4067 277.915 11.46C277.985 11.51 278.07 11.5667 278.17 11.63C278.27 11.6933 278.392 11.7517 278.535 11.805C278.682 11.855 278.86 11.88 279.07 11.88C279.253 11.88 279.417 11.8583 279.56 11.815C279.707 11.7683 279.83 11.705 279.93 11.625C280.03 11.545 280.107 11.45 280.16 11.34C280.213 11.23 280.24 11.11 280.24 10.98C280.24 10.73 280.135 10.5283 279.925 10.375C279.718 10.2217 279.403 10.145 278.98 10.145H278.405V9.555H278.98C279.163 9.555 279.328 9.53667 279.475 9.5C279.622 9.46 279.747 9.40667 279.85 9.34C279.953 9.27333 280.032 9.19333 280.085 9.1C280.138 9.00333 280.165 8.9 280.165 8.79C280.165 8.69 280.142 8.595 280.095 8.505C280.052 8.415 279.983 8.33667 279.89 8.27C279.8 8.20333 279.687 8.15 279.55 8.11C279.413 8.07 279.253 8.05 279.07 8.05C278.87 8.05 278.7 8.07 278.56 8.11C278.423 8.15 278.307 8.19333 278.21 8.24C278.117 8.28667 278.04 8.33 277.98 8.37C277.92 8.41 277.868 8.43 277.825 8.43C277.782 8.43 277.745 8.42167 277.715 8.405C277.688 8.38833 277.658 8.35333 277.625 8.3L277.42 7.955ZM284.367 7.355C284.737 7.355 285.071 7.41667 285.367 7.54C285.664 7.66333 285.917 7.83833 286.127 8.065C286.337 8.29167 286.497 8.56667 286.607 8.89C286.721 9.21 286.777 9.56833 286.777 9.965C286.777 10.365 286.721 10.725 286.607 11.045C286.497 11.365 286.337 11.6383 286.127 11.865C285.917 12.0917 285.664 12.2667 285.367 12.39C285.071 12.51 284.737 12.57 284.367 12.57C283.994 12.57 283.657 12.51 283.357 12.39C283.061 12.2667 282.807 12.0917 282.597 11.865C282.387 11.6383 282.226 11.365 282.112 11.045C282.002 10.725 281.947 10.365 281.947 9.965C281.947 9.56833 282.002 9.21 282.112 8.89C282.226 8.56667 282.387 8.29167 282.597 8.065C282.807 7.83833 283.061 7.66333 283.357 7.54C283.657 7.41667 283.994 7.355 284.367 7.355ZM284.367 11.875C284.867 11.875 285.241 11.7083 285.487 11.375C285.734 11.0383 285.857 10.57 285.857 9.97C285.857 9.36667 285.734 8.89667 285.487 8.56C285.241 8.22333 284.867 8.055 284.367 8.055C284.114 8.055 283.892 8.09833 283.702 8.185C283.516 8.27167 283.359 8.39667 283.232 8.56C283.109 8.72333 283.016 8.925 282.952 9.165C282.892 9.40167 282.862 9.67 282.862 9.97C282.862 10.57 282.986 11.0383 283.232 11.375C283.482 11.7083 283.861 11.875 284.367 11.875ZM292.126 12.5H291.231V8.115H288.801V12.5H287.906V7.435H292.126V12.5ZM296.286 10.22C295.876 10.2333 295.526 10.2667 295.236 10.32C294.949 10.37 294.714 10.4367 294.531 10.52C294.351 10.6033 294.219 10.7017 294.136 10.815C294.056 10.9283 294.016 11.055 294.016 11.195C294.016 11.3283 294.038 11.4433 294.081 11.54C294.124 11.6367 294.183 11.7167 294.256 11.78C294.333 11.84 294.421 11.885 294.521 11.915C294.624 11.9417 294.734 11.955 294.851 11.955C295.008 11.955 295.151 11.94 295.281 11.91C295.411 11.8767 295.533 11.83 295.646 11.77C295.763 11.71 295.873 11.6383 295.976 11.555C296.083 11.4717 296.186 11.3767 296.286 11.27V10.22ZM293.411 8.15C293.691 7.88 293.993 7.67833 294.316 7.545C294.639 7.41167 294.998 7.345 295.391 7.345C295.674 7.345 295.926 7.39167 296.146 7.485C296.366 7.57833 296.551 7.70833 296.701 7.875C296.851 8.04167 296.964 8.24333 297.041 8.48C297.118 8.71667 297.156 8.97667 297.156 9.26V12.5H296.761C296.674 12.5 296.608 12.4867 296.561 12.46C296.514 12.43 296.478 12.3733 296.451 12.29L296.351 11.81C296.218 11.9333 296.088 12.0433 295.961 12.14C295.834 12.2333 295.701 12.3133 295.561 12.38C295.421 12.4433 295.271 12.4917 295.111 12.525C294.954 12.5617 294.779 12.58 294.586 12.58C294.389 12.58 294.204 12.5533 294.031 12.5C293.858 12.4433 293.706 12.36 293.576 12.25C293.449 12.14 293.348 12.0017 293.271 11.835C293.198 11.665 293.161 11.465 293.161 11.235C293.161 11.035 293.216 10.8433 293.326 10.66C293.436 10.4733 293.614 10.3083 293.861 10.165C294.108 10.0217 294.429 9.905 294.826 9.815C295.223 9.72167 295.709 9.66833 296.286 9.655V9.26C296.286 8.86667 296.201 8.57 296.031 8.37C295.861 8.16667 295.613 8.065 295.286 8.065C295.066 8.065 294.881 8.09333 294.731 8.15C294.584 8.20333 294.456 8.265 294.346 8.335C294.239 8.40167 294.146 8.46333 294.066 8.52C293.989 8.57333 293.913 8.6 293.836 8.6C293.776 8.6 293.724 8.585 293.681 8.555C293.638 8.52167 293.601 8.48167 293.571 8.435L293.411 8.15ZM302.037 8.335C302.01 8.37167 301.983 8.4 301.957 8.42C301.93 8.44 301.893 8.45 301.847 8.45C301.797 8.45 301.742 8.43 301.682 8.39C301.622 8.34667 301.547 8.3 301.457 8.25C301.37 8.2 301.262 8.155 301.132 8.115C301.005 8.07167 300.848 8.05 300.662 8.05C300.412 8.05 300.192 8.095 300.002 8.185C299.812 8.27167 299.652 8.39833 299.522 8.565C299.395 8.73167 299.298 8.93333 299.232 9.17C299.168 9.40667 299.137 9.67167 299.137 9.965C299.137 10.2717 299.172 10.545 299.242 10.785C299.312 11.0217 299.41 11.2217 299.537 11.385C299.667 11.545 299.822 11.6683 300.002 11.755C300.185 11.8383 300.39 11.88 300.617 11.88C300.833 11.88 301.012 11.855 301.152 11.805C301.292 11.7517 301.407 11.6933 301.497 11.63C301.59 11.5667 301.667 11.51 301.727 11.46C301.79 11.4067 301.852 11.38 301.912 11.38C301.985 11.38 302.042 11.4083 302.082 11.465L302.332 11.79C302.222 11.9267 302.097 12.0433 301.957 12.14C301.817 12.2367 301.665 12.3183 301.502 12.385C301.342 12.4483 301.173 12.495 300.997 12.525C300.82 12.555 300.64 12.57 300.457 12.57C300.14 12.57 299.845 12.5117 299.572 12.395C299.302 12.2783 299.067 12.11 298.867 11.89C298.667 11.6667 298.51 11.3933 298.397 11.07C298.283 10.7467 298.227 10.3783 298.227 9.965C298.227 9.58833 298.278 9.24 298.382 8.92C298.488 8.6 298.642 8.325 298.842 8.095C299.045 7.86167 299.293 7.68 299.587 7.55C299.883 7.42 300.223 7.355 300.607 7.355C300.963 7.355 301.277 7.41333 301.547 7.53C301.82 7.64333 302.062 7.805 302.272 8.015L302.037 8.335ZM307.507 7.435V12.5H306.612V10.13H304.182V12.5H303.287V7.435H304.182V9.455H306.612V7.435H307.507ZM311.057 7.355C311.427 7.355 311.76 7.41667 312.057 7.54C312.353 7.66333 312.607 7.83833 312.817 8.065C313.027 8.29167 313.187 8.56667 313.297 8.89C313.41 9.21 313.467 9.56833 313.467 9.965C313.467 10.365 313.41 10.725 313.297 11.045C313.187 11.365 313.027 11.6383 312.817 11.865C312.607 12.0917 312.353 12.2667 312.057 12.39C311.76 12.51 311.427 12.57 311.057 12.57C310.683 12.57 310.347 12.51 310.047 12.39C309.75 12.2667 309.497 12.0917 309.287 11.865C309.077 11.6383 308.915 11.365 308.802 11.045C308.692 10.725 308.637 10.365 308.637 9.965C308.637 9.56833 308.692 9.21 308.802 8.89C308.915 8.56667 309.077 8.29167 309.287 8.065C309.497 7.83833 309.75 7.66333 310.047 7.54C310.347 7.41667 310.683 7.355 311.057 7.355ZM311.057 11.875C311.557 11.875 311.93 11.7083 312.177 11.375C312.423 11.0383 312.547 10.57 312.547 9.97C312.547 9.36667 312.423 8.89667 312.177 8.56C311.93 8.22333 311.557 8.055 311.057 8.055C310.803 8.055 310.582 8.09833 310.392 8.185C310.205 8.27167 310.048 8.39667 309.922 8.56C309.798 8.72333 309.705 8.925 309.642 9.165C309.582 9.40167 309.552 9.67 309.552 9.97C309.552 10.57 309.675 11.0383 309.922 11.375C310.172 11.7083 310.55 11.875 311.057 11.875ZM318.121 8.335C318.094 8.37167 318.067 8.4 318.041 8.42C318.014 8.44 317.977 8.45 317.931 8.45C317.881 8.45 317.826 8.43 317.766 8.39C317.706 8.34667 317.631 8.3 317.541 8.25C317.454 8.2 317.346 8.155 317.216 8.115C317.089 8.07167 316.932 8.05 316.746 8.05C316.496 8.05 316.276 8.095 316.086 8.185C315.896 8.27167 315.736 8.39833 315.606 8.565C315.479 8.73167 315.382 8.93333 315.316 9.17C315.252 9.40667 315.221 9.67167 315.221 9.965C315.221 10.2717 315.256 10.545 315.326 10.785C315.396 11.0217 315.494 11.2217 315.621 11.385C315.751 11.545 315.906 11.6683 316.086 11.755C316.269 11.8383 316.474 11.88 316.701 11.88C316.917 11.88 317.096 11.855 317.236 11.805C317.376 11.7517 317.491 11.6933 317.581 11.63C317.674 11.5667 317.751 11.51 317.811 11.46C317.874 11.4067 317.936 11.38 317.996 11.38C318.069 11.38 318.126 11.4083 318.166 11.465L318.416 11.79C318.306 11.9267 318.181 12.0433 318.041 12.14C317.901 12.2367 317.749 12.3183 317.586 12.385C317.426 12.4483 317.257 12.495 317.081 12.525C316.904 12.555 316.724 12.57 316.541 12.57C316.224 12.57 315.929 12.5117 315.656 12.395C315.386 12.2783 315.151 12.11 314.951 11.89C314.751 11.6667 314.594 11.3933 314.481 11.07C314.367 10.7467 314.311 10.3783 314.311 9.965C314.311 9.58833 314.362 9.24 314.466 8.92C314.572 8.6 314.726 8.325 314.926 8.095C315.129 7.86167 315.377 7.68 315.671 7.55C315.967 7.42 316.307 7.355 316.691 7.355C317.047 7.355 317.361 7.41333 317.631 7.53C317.904 7.64333 318.146 7.805 318.356 8.015L318.121 8.335ZM323.581 8.115H321.636V12.5H320.746V8.115H318.801V7.435H323.581V8.115ZM326.375 11.85C326.555 11.85 326.71 11.8283 326.84 11.785C326.973 11.7383 327.083 11.675 327.17 11.595C327.256 11.5117 327.321 11.415 327.365 11.305C327.408 11.195 327.43 11.075 327.43 10.945C327.43 10.825 327.411 10.7133 327.375 10.61C327.338 10.5033 327.276 10.41 327.19 10.33C327.106 10.25 326.996 10.1867 326.86 10.14C326.723 10.0933 326.556 10.07 326.36 10.07H325.285V11.85H326.375ZM326.36 9.42C326.71 9.42 327.003 9.46167 327.24 9.545C327.48 9.62833 327.671 9.74 327.815 9.88C327.961 10.02 328.066 10.1817 328.13 10.365C328.193 10.5483 328.225 10.7383 328.225 10.935C328.225 11.1617 328.185 11.3717 328.105 11.565C328.025 11.755 327.906 11.92 327.75 12.06C327.593 12.1967 327.4 12.305 327.17 12.385C326.94 12.4617 326.675 12.5 326.375 12.5H324.43V7.435H325.285V9.42H326.36ZM336.118 7.435V12.5H335.228V9.06C335.228 8.99333 335.232 8.92167 335.238 8.845C335.245 8.76833 335.253 8.69167 335.263 8.615C335.233 8.68167 335.203 8.74333 335.173 8.8C335.143 8.85667 335.112 8.90833 335.078 8.955L332.633 12.28C332.597 12.3333 332.55 12.385 332.493 12.435C332.44 12.4817 332.38 12.505 332.313 12.505H331.773V7.44H332.668V10.88C332.668 10.9433 332.665 11.0133 332.658 11.09C332.652 11.1633 332.643 11.2383 332.633 11.315C332.663 11.2517 332.693 11.1933 332.723 11.14C332.753 11.0833 332.783 11.0317 332.813 10.985L335.258 7.66C335.295 7.60667 335.342 7.55667 335.398 7.51C335.455 7.46 335.517 7.435 335.583 7.435H336.118ZM344.304 7.435V12.5H343.409V10.13H340.979V12.5H340.084V7.435H340.979V9.455H343.409V7.435H344.304ZM348.464 10.22C348.054 10.2333 347.704 10.2667 347.414 10.32C347.127 10.37 346.892 10.4367 346.709 10.52C346.529 10.6033 346.397 10.7017 346.314 10.815C346.234 10.9283 346.194 11.055 346.194 11.195C346.194 11.3283 346.215 11.4433 346.259 11.54C346.302 11.6367 346.36 11.7167 346.434 11.78C346.51 11.84 346.599 11.885 346.699 11.915C346.802 11.9417 346.912 11.955 347.029 11.955C347.185 11.955 347.329 11.94 347.459 11.91C347.589 11.8767 347.71 11.83 347.824 11.77C347.94 11.71 348.05 11.6383 348.154 11.555C348.26 11.4717 348.364 11.3767 348.464 11.27V10.22ZM345.589 8.15C345.869 7.88 346.17 7.67833 346.494 7.545C346.817 7.41167 347.175 7.345 347.569 7.345C347.852 7.345 348.104 7.39167 348.324 7.485C348.544 7.57833 348.729 7.70833 348.879 7.875C349.029 8.04167 349.142 8.24333 349.219 8.48C349.295 8.71667 349.334 8.97667 349.334 9.26V12.5H348.939C348.852 12.5 348.785 12.4867 348.739 12.46C348.692 12.43 348.655 12.3733 348.629 12.29L348.529 11.81C348.395 11.9333 348.265 12.0433 348.139 12.14C348.012 12.2333 347.879 12.3133 347.739 12.38C347.599 12.4433 347.449 12.4917 347.289 12.525C347.132 12.5617 346.957 12.58 346.764 12.58C346.567 12.58 346.382 12.5533 346.209 12.5C346.035 12.4433 345.884 12.36 345.754 12.25C345.627 12.14 345.525 12.0017 345.449 11.835C345.375 11.665 345.339 11.465 345.339 11.235C345.339 11.035 345.394 10.8433 345.504 10.66C345.614 10.4733 345.792 10.3083 346.039 10.165C346.285 10.0217 346.607 9.905 347.004 9.815C347.4 9.72167 347.887 9.66833 348.464 9.655V9.26C348.464 8.86667 348.379 8.57 348.209 8.37C348.039 8.16667 347.79 8.065 347.464 8.065C347.244 8.065 347.059 8.09333 346.909 8.15C346.762 8.20333 346.634 8.265 346.524 8.335C346.417 8.40167 346.324 8.46333 346.244 8.52C346.167 8.57333 346.09 8.6 346.014 8.6C345.954 8.6 345.902 8.585 345.859 8.555C345.815 8.52167 345.779 8.48167 345.749 8.435L345.589 8.15ZM354.179 11.85V8.135H352.574C352.541 8.655 352.494 9.115 352.434 9.515C352.374 9.915 352.304 10.2667 352.224 10.57C352.148 10.87 352.061 11.125 351.964 11.335C351.871 11.545 351.773 11.7167 351.669 11.85H354.179ZM355.969 11.825V13.97C355.969 14.0567 355.944 14.1233 355.894 14.17C355.848 14.22 355.786 14.245 355.709 14.245H355.164V12.5H350.904V13.99C350.904 14.0533 350.884 14.1117 350.844 14.165C350.808 14.2183 350.746 14.245 350.659 14.245H350.099V11.85H350.264C350.381 11.85 350.496 11.83 350.609 11.79C350.726 11.75 350.838 11.675 350.944 11.565C351.051 11.4517 351.151 11.2933 351.244 11.09C351.341 10.8867 351.428 10.6217 351.504 10.295C351.581 9.96833 351.648 9.57167 351.704 9.105C351.761 8.635 351.806 8.07833 351.839 7.435H355.044V11.825H355.969ZM360.173 9.415C360.173 9.20833 360.143 9.02 360.083 8.85C360.026 8.67667 359.941 8.52833 359.828 8.405C359.718 8.27833 359.583 8.18167 359.423 8.115C359.263 8.045 359.081 8.01 358.878 8.01C358.451 8.01 358.113 8.135 357.863 8.385C357.616 8.63167 357.463 8.975 357.403 9.415H360.173ZM360.893 11.79C360.783 11.9233 360.651 12.04 360.498 12.14C360.345 12.2367 360.18 12.3167 360.003 12.38C359.83 12.4433 359.65 12.49 359.463 12.52C359.276 12.5533 359.091 12.57 358.908 12.57C358.558 12.57 358.235 12.5117 357.938 12.395C357.645 12.275 357.39 12.1017 357.173 11.875C356.96 11.645 356.793 11.3617 356.673 11.025C356.553 10.6883 356.493 10.3017 356.493 9.865C356.493 9.51167 356.546 9.18167 356.653 8.875C356.763 8.56833 356.92 8.30333 357.123 8.08C357.326 7.85333 357.575 7.67667 357.868 7.55C358.161 7.42 358.491 7.355 358.858 7.355C359.161 7.355 359.441 7.40667 359.698 7.51C359.958 7.61 360.181 7.75667 360.368 7.95C360.558 8.14 360.706 8.37667 360.813 8.66C360.92 8.94 360.973 9.26 360.973 9.62C360.973 9.76 360.958 9.85333 360.928 9.9C360.898 9.94667 360.841 9.97 360.758 9.97H357.373C357.383 10.29 357.426 10.5683 357.503 10.805C357.583 11.0417 357.693 11.24 357.833 11.4C357.973 11.5567 358.14 11.675 358.333 11.755C358.526 11.8317 358.743 11.87 358.983 11.87C359.206 11.87 359.398 11.845 359.558 11.795C359.721 11.7417 359.861 11.685 359.978 11.625C360.095 11.565 360.191 11.51 360.268 11.46C360.348 11.4067 360.416 11.38 360.473 11.38C360.546 11.38 360.603 11.4083 360.643 11.465L360.893 11.79ZM369.077 12.5H368.457C368.297 12.5 368.174 12.475 368.087 12.425C368.004 12.375 367.939 12.2967 367.892 12.19L366.907 10.615C366.744 10.355 366.509 10.225 366.202 10.225H365.692V12.505H364.827V10.225H364.322C364.172 10.225 364.036 10.2583 363.912 10.325C363.792 10.3917 363.694 10.4883 363.617 10.615L362.632 12.19C362.582 12.2967 362.514 12.375 362.427 12.425C362.344 12.475 362.222 12.5 362.062 12.5H361.447L362.777 10.405C362.864 10.2583 362.962 10.14 363.072 10.05C363.182 9.96 363.317 9.89167 363.477 9.845C363.351 9.805 363.242 9.74667 363.152 9.67C363.066 9.59 362.984 9.48833 362.907 9.365L361.587 7.435H362.287C362.374 7.435 362.452 7.45833 362.522 7.505C362.592 7.54833 362.647 7.60833 362.687 7.685L363.762 9.285C363.836 9.395 363.924 9.48 364.027 9.54C364.131 9.59667 364.252 9.625 364.392 9.625H364.827V7.435H365.692V9.625H366.117C366.401 9.625 366.614 9.51167 366.757 9.285L367.832 7.685C367.872 7.60833 367.927 7.54833 367.997 7.505C368.071 7.45833 368.151 7.435 368.237 7.435H368.937L367.617 9.365C367.541 9.48833 367.457 9.59 367.367 9.67C367.281 9.74667 367.174 9.805 367.047 9.845C367.207 9.89167 367.342 9.96 367.452 10.05C367.562 10.14 367.661 10.2583 367.747 10.405L369.077 12.5ZM374.128 7.435V12.5H373.233V10.13H370.803V12.5H369.908V7.435H370.803V9.455H373.233V7.435H374.128ZM377.678 7.355C378.048 7.355 378.381 7.41667 378.678 7.54C378.975 7.66333 379.228 7.83833 379.438 8.065C379.648 8.29167 379.808 8.56667 379.918 8.89C380.031 9.21 380.088 9.56833 380.088 9.965C380.088 10.365 380.031 10.725 379.918 11.045C379.808 11.365 379.648 11.6383 379.438 11.865C379.228 12.0917 378.975 12.2667 378.678 12.39C378.381 12.51 378.048 12.57 377.678 12.57C377.305 12.57 376.968 12.51 376.668 12.39C376.371 12.2667 376.118 12.0917 375.908 11.865C375.698 11.6383 375.536 11.365 375.423 11.045C375.313 10.725 375.258 10.365 375.258 9.965C375.258 9.56833 375.313 9.21 375.423 8.89C375.536 8.56667 375.698 8.29167 375.908 8.065C376.118 7.83833 376.371 7.66333 376.668 7.54C376.968 7.41667 377.305 7.355 377.678 7.355ZM377.678 11.875C378.178 11.875 378.551 11.7083 378.798 11.375C379.045 11.0383 379.168 10.57 379.168 9.97C379.168 9.36667 379.045 8.89667 378.798 8.56C378.551 8.22333 378.178 8.055 377.678 8.055C377.425 8.055 377.203 8.09833 377.013 8.185C376.826 8.27167 376.67 8.39667 376.543 8.56C376.42 8.72333 376.326 8.925 376.263 9.165C376.203 9.40167 376.173 9.67 376.173 9.97C376.173 10.57 376.296 11.0383 376.543 11.375C376.793 11.7083 377.171 11.875 377.678 11.875ZM384.742 8.335C384.715 8.37167 384.688 8.4 384.662 8.42C384.635 8.44 384.598 8.45 384.552 8.45C384.502 8.45 384.447 8.43 384.387 8.39C384.327 8.34667 384.252 8.3 384.162 8.25C384.075 8.2 383.967 8.155 383.837 8.115C383.71 8.07167 383.553 8.05 383.367 8.05C383.117 8.05 382.897 8.095 382.707 8.185C382.517 8.27167 382.357 8.39833 382.227 8.565C382.1 8.73167 382.003 8.93333 381.937 9.17C381.873 9.40667 381.842 9.67167 381.842 9.965C381.842 10.2717 381.877 10.545 381.947 10.785C382.017 11.0217 382.115 11.2217 382.242 11.385C382.372 11.545 382.527 11.6683 382.707 11.755C382.89 11.8383 383.095 11.88 383.322 11.88C383.538 11.88 383.717 11.855 383.857 11.805C383.997 11.7517 384.112 11.6933 384.202 11.63C384.295 11.5667 384.372 11.51 384.432 11.46C384.495 11.4067 384.557 11.38 384.617 11.38C384.69 11.38 384.747 11.4083 384.787 11.465L385.037 11.79C384.927 11.9267 384.802 12.0433 384.662 12.14C384.522 12.2367 384.37 12.3183 384.207 12.385C384.047 12.4483 383.878 12.495 383.702 12.525C383.525 12.555 383.345 12.57 383.162 12.57C382.845 12.57 382.55 12.5117 382.277 12.395C382.007 12.2783 381.772 12.11 381.572 11.89C381.372 11.6667 381.215 11.3933 381.102 11.07C380.988 10.7467 380.932 10.3783 380.932 9.965C380.932 9.58833 380.983 9.24 381.087 8.92C381.193 8.6 381.347 8.325 381.547 8.095C381.75 7.86167 381.998 7.68 382.292 7.55C382.588 7.42 382.928 7.355 383.312 7.355C383.668 7.355 383.982 7.41333 384.252 7.53C384.525 7.64333 384.767 7.805 384.977 8.015L384.742 8.335ZM390.202 8.115H388.257V12.5H387.367V8.115H385.422V7.435H390.202V8.115ZM392.996 11.85C393.176 11.85 393.331 11.8283 393.461 11.785C393.594 11.7383 393.704 11.675 393.791 11.595C393.877 11.5117 393.942 11.415 393.986 11.305C394.029 11.195 394.051 11.075 394.051 10.945C394.051 10.825 394.032 10.7133 393.996 10.61C393.959 10.5033 393.897 10.41 393.811 10.33C393.727 10.25 393.617 10.1867 393.481 10.14C393.344 10.0933 393.177 10.07 392.981 10.07H391.906V11.85H392.996ZM392.981 9.42C393.331 9.42 393.624 9.46167 393.861 9.545C394.101 9.62833 394.292 9.74 394.436 9.88C394.582 10.02 394.687 10.1817 394.751 10.365C394.814 10.5483 394.846 10.7383 394.846 10.935C394.846 11.1617 394.806 11.3717 394.726 11.565C394.646 11.755 394.527 11.92 394.371 12.06C394.214 12.1967 394.021 12.305 393.791 12.385C393.561 12.4617 393.296 12.5 392.996 12.5H391.051V7.435H391.906V9.42H392.981ZM229.78 19.685C229.827 19.6117 229.888 19.5517 229.965 19.505C230.042 19.4583 230.123 19.435 230.21 19.435H230.905L229.59 21.365C229.51 21.4883 229.427 21.59 229.34 21.67C229.253 21.7467 229.147 21.8067 229.02 21.85C229.18 21.8933 229.315 21.9617 229.425 22.055C229.535 22.145 229.633 22.2617 229.72 22.405L231.05 24.5H230.43C230.27 24.5 230.147 24.4733 230.06 24.42C229.973 24.3667 229.898 24.29 229.835 24.19L228.85 22.615C228.693 22.355 228.458 22.225 228.145 22.225H227.6V24.505H226.705V19.435H227.6V21.625H228.08C228.347 21.625 228.555 21.5117 228.705 21.285L229.78 19.685ZM232.776 23.28C232.939 23.5 233.117 23.655 233.311 23.745C233.504 23.835 233.721 23.88 233.961 23.88C234.434 23.88 234.797 23.7117 235.051 23.375C235.304 23.0383 235.431 22.5583 235.431 21.935C235.431 21.605 235.401 21.3217 235.341 21.085C235.284 20.8483 235.201 20.655 235.091 20.505C234.981 20.3517 234.846 20.24 234.686 20.17C234.526 20.1 234.344 20.065 234.141 20.065C233.851 20.065 233.596 20.1317 233.376 20.265C233.159 20.3983 232.959 20.5867 232.776 20.83V23.28ZM232.731 20.22C232.944 19.9567 233.191 19.745 233.471 19.585C233.751 19.425 234.071 19.345 234.431 19.345C234.724 19.345 234.989 19.4017 235.226 19.515C235.462 19.625 235.664 19.79 235.831 20.01C235.997 20.2267 236.126 20.4967 236.216 20.82C236.306 21.1433 236.351 21.515 236.351 21.935C236.351 22.3083 236.301 22.6567 236.201 22.98C236.101 23.3 235.956 23.5783 235.766 23.815C235.579 24.0483 235.349 24.2333 235.076 24.37C234.806 24.5033 234.501 24.57 234.161 24.57C233.851 24.57 233.584 24.5183 233.361 24.415C233.141 24.3083 232.946 24.1617 232.776 23.975V26.215H231.881V19.435H232.416C232.542 19.435 232.621 19.4967 232.651 19.62L232.731 20.22ZM241.821 19.435V24.5H240.931V21.06C240.931 20.9933 240.935 20.9217 240.941 20.845C240.948 20.7683 240.956 20.6917 240.966 20.615C240.936 20.6817 240.906 20.7433 240.876 20.8C240.846 20.8567 240.815 20.9083 240.781 20.955L238.336 24.28C238.3 24.3333 238.253 24.385 238.196 24.435C238.143 24.4817 238.083 24.505 238.016 24.505H237.476V19.44H238.371V22.88C238.371 22.9433 238.368 23.0133 238.361 23.09C238.355 23.1633 238.346 23.2383 238.336 23.315C238.366 23.2517 238.396 23.1933 238.426 23.14C238.456 23.0833 238.486 23.0317 238.516 22.985L240.961 19.66C240.998 19.6067 241.045 19.5567 241.101 19.51C241.158 19.46 241.22 19.435 241.286 19.435H241.821ZM247.438 20.115H245.493V24.5H244.603V20.115H242.658V19.435H247.438V20.115ZM252.632 19.435V24.5H251.742V21.06C251.742 20.9933 251.745 20.9217 251.752 20.845C251.759 20.7683 251.767 20.6917 251.777 20.615C251.747 20.6817 251.717 20.7433 251.687 20.8C251.657 20.8567 251.625 20.9083 251.592 20.955L249.147 24.28C249.11 24.3333 249.064 24.385 249.007 24.435C248.954 24.4817 248.894 24.505 248.827 24.505H248.287V19.44H249.182V22.88C249.182 22.9433 249.179 23.0133 249.172 23.09C249.165 23.1633 249.157 23.2383 249.147 23.315C249.177 23.2517 249.207 23.1933 249.237 23.14C249.267 23.0833 249.297 23.0317 249.327 22.985L251.772 19.66C251.809 19.6067 251.855 19.5567 251.912 19.51C251.969 19.46 252.03 19.435 252.097 19.435H252.632ZM257.774 19.435V24.5H256.884V22.35C256.451 22.4633 256.042 22.535 255.659 22.565C255.279 22.5917 254.946 22.5617 254.659 22.475C254.376 22.3883 254.151 22.2367 253.984 22.02C253.821 21.8 253.739 21.4967 253.739 21.11V19.435H254.634V20.975C254.634 21.2183 254.682 21.41 254.779 21.55C254.879 21.69 255.024 21.7867 255.214 21.84C255.404 21.8933 255.639 21.9083 255.919 21.885C256.199 21.8617 256.521 21.8067 256.884 21.72V19.435H257.774ZM262.575 21.415C262.575 21.2083 262.545 21.02 262.485 20.85C262.429 20.6767 262.344 20.5283 262.23 20.405C262.12 20.2783 261.985 20.1817 261.825 20.115C261.665 20.045 261.484 20.01 261.28 20.01C260.854 20.01 260.515 20.135 260.265 20.385C260.019 20.6317 259.865 20.975 259.805 21.415H262.575ZM263.295 23.79C263.185 23.9233 263.054 24.04 262.9 24.14C262.747 24.2367 262.582 24.3167 262.405 24.38C262.232 24.4433 262.052 24.49 261.865 24.52C261.679 24.5533 261.494 24.57 261.31 24.57C260.96 24.57 260.637 24.5117 260.34 24.395C260.047 24.275 259.792 24.1017 259.575 23.875C259.362 23.645 259.195 23.3617 259.075 23.025C258.955 22.6883 258.895 22.3017 258.895 21.865C258.895 21.5117 258.949 21.1817 259.055 20.875C259.165 20.5683 259.322 20.3033 259.525 20.08C259.729 19.8533 259.977 19.6767 260.27 19.55C260.564 19.42 260.894 19.355 261.26 19.355C261.564 19.355 261.844 19.4067 262.1 19.51C262.36 19.61 262.584 19.7567 262.77 19.95C262.96 20.14 263.109 20.3767 263.215 20.66C263.322 20.94 263.375 21.26 263.375 21.62C263.375 21.76 263.36 21.8533 263.33 21.9C263.3 21.9467 263.244 21.97 263.16 21.97H259.775C259.785 22.29 259.829 22.5683 259.905 22.805C259.985 23.0417 260.095 23.24 260.235 23.4C260.375 23.5567 260.542 23.675 260.735 23.755C260.929 23.8317 261.145 23.87 261.385 23.87C261.609 23.87 261.8 23.845 261.96 23.795C262.124 23.7417 262.264 23.685 262.38 23.625C262.497 23.565 262.594 23.51 262.67 23.46C262.75 23.4067 262.819 23.38 262.875 23.38C262.949 23.38 263.005 23.4083 263.045 23.465L263.295 23.79ZM267.994 20.335C267.967 20.3717 267.94 20.4 267.914 20.42C267.887 20.44 267.85 20.45 267.804 20.45C267.754 20.45 267.699 20.43 267.639 20.39C267.579 20.3467 267.504 20.3 267.414 20.25C267.327 20.2 267.219 20.155 267.089 20.115C266.962 20.0717 266.805 20.05 266.619 20.05C266.369 20.05 266.149 20.095 265.959 20.185C265.769 20.2717 265.609 20.3983 265.479 20.565C265.352 20.7317 265.255 20.9333 265.189 21.17C265.125 21.4067 265.094 21.6717 265.094 21.965C265.094 22.2717 265.129 22.545 265.199 22.785C265.269 23.0217 265.367 23.2217 265.494 23.385C265.624 23.545 265.779 23.6683 265.959 23.755C266.142 23.8383 266.347 23.88 266.574 23.88C266.79 23.88 266.969 23.855 267.109 23.805C267.249 23.7517 267.364 23.6933 267.454 23.63C267.547 23.5667 267.624 23.51 267.684 23.46C267.747 23.4067 267.809 23.38 267.869 23.38C267.942 23.38 267.999 23.4083 268.039 23.465L268.289 23.79C268.179 23.9267 268.054 24.0433 267.914 24.14C267.774 24.2367 267.622 24.3183 267.459 24.385C267.299 24.4483 267.13 24.495 266.954 24.525C266.777 24.555 266.597 24.57 266.414 24.57C266.097 24.57 265.802 24.5117 265.529 24.395C265.259 24.2783 265.024 24.11 264.824 23.89C264.624 23.6667 264.467 23.3933 264.354 23.07C264.24 22.7467 264.184 22.3783 264.184 21.965C264.184 21.5883 264.235 21.24 264.339 20.92C264.445 20.6 264.599 20.325 264.799 20.095C265.002 19.8617 265.25 19.68 265.544 19.55C265.84 19.42 266.18 19.355 266.564 19.355C266.92 19.355 267.234 19.4133 267.504 19.53C267.777 19.6433 268.019 19.805 268.229 20.015L267.994 20.335ZM272.319 19.685C272.366 19.6117 272.427 19.5517 272.504 19.505C272.581 19.4583 272.662 19.435 272.749 19.435H273.444L272.129 21.365C272.049 21.4883 271.966 21.59 271.879 21.67C271.792 21.7467 271.686 21.8067 271.559 21.85C271.719 21.8933 271.854 21.9617 271.964 22.055C272.074 22.145 272.172 22.2617 272.259 22.405L273.589 24.5H272.969C272.809 24.5 272.686 24.4733 272.599 24.42C272.512 24.3667 272.437 24.29 272.374 24.19L271.389 22.615C271.232 22.355 270.997 22.225 270.684 22.225H270.139V24.505H269.244V19.435H270.139V21.625H270.619C270.886 21.625 271.094 21.5117 271.244 21.285L272.319 19.685ZM278.765 19.435V24.5H277.875V21.06C277.875 20.9933 277.878 20.9217 277.885 20.845C277.892 20.7683 277.9 20.6917 277.91 20.615C277.88 20.6817 277.85 20.7433 277.82 20.8C277.79 20.8567 277.758 20.9083 277.725 20.955L275.28 24.28C275.243 24.3333 275.197 24.385 275.14 24.435C275.087 24.4817 275.027 24.505 274.96 24.505H274.42V19.44H275.315V22.88C275.315 22.9433 275.312 23.0133 275.305 23.09C275.298 23.1633 275.29 23.2383 275.28 23.315C275.31 23.2517 275.34 23.1933 275.37 23.14C275.4 23.0833 275.43 23.0317 275.46 22.985L277.905 19.66C277.942 19.6067 277.988 19.5567 278.045 19.51C278.102 19.46 278.163 19.435 278.23 19.435H278.765ZM284.332 24.5H283.477C283.403 24.5 283.345 24.4817 283.302 24.445C283.262 24.405 283.228 24.3617 283.202 24.315L281.927 22.33C281.913 22.3767 281.898 22.4233 281.882 22.47C281.868 22.5133 281.848 22.5533 281.822 22.59L280.642 24.315C280.608 24.3617 280.572 24.405 280.532 24.445C280.495 24.4817 280.443 24.5 280.377 24.5H279.582L281.357 21.9L279.652 19.435H280.507C280.58 19.435 280.633 19.4467 280.667 19.47C280.7 19.4933 280.73 19.5267 280.757 19.57L282.002 21.47C282.028 21.3733 282.07 21.28 282.127 21.19L283.217 19.59C283.247 19.5433 283.278 19.5067 283.312 19.48C283.348 19.45 283.392 19.435 283.442 19.435H284.262L282.557 21.855L284.332 24.5ZM292.856 23.825V25.97C292.856 26.0567 292.831 26.1233 292.781 26.17C292.734 26.22 292.673 26.245 292.596 26.245H292.051V24.5H287.711V19.435H288.606V23.825H291.036V19.435H291.931V23.825H292.856ZM298.101 19.435V24.5H297.211V21.06C297.211 20.9933 297.214 20.9217 297.221 20.845C297.227 20.7683 297.236 20.6917 297.246 20.615C297.216 20.6817 297.186 20.7433 297.156 20.8C297.126 20.8567 297.094 20.9083 297.061 20.955L294.616 24.28C294.579 24.3333 294.532 24.385 294.476 24.435C294.422 24.4817 294.362 24.505 294.296 24.505H293.756V19.44H294.651V22.88C294.651 22.9433 294.647 23.0133 294.641 23.09C294.634 23.1633 294.626 23.2383 294.616 23.315C294.646 23.2517 294.676 23.1933 294.706 23.14C294.736 23.0833 294.766 23.0317 294.796 22.985L297.241 19.66C297.277 19.6067 297.324 19.5567 297.381 19.51C297.437 19.46 297.499 19.435 297.566 19.435H298.101ZM302.723 23.895C303.019 23.8817 303.281 23.8267 303.508 23.73C303.738 23.6333 303.929 23.5033 304.083 23.34C304.239 23.1733 304.356 22.975 304.433 22.745C304.513 22.515 304.553 22.2567 304.553 21.97C304.553 21.68 304.513 21.42 304.433 21.19C304.356 20.9567 304.239 20.7567 304.083 20.59C303.929 20.4233 303.738 20.2933 303.508 20.2C303.281 20.1033 303.018 20.0467 302.718 20.03V23.85L302.723 23.895ZM301.933 20.03C301.633 20.0467 301.369 20.1033 301.143 20.2C300.916 20.2933 300.724 20.4233 300.568 20.59C300.414 20.7567 300.298 20.9567 300.218 21.19C300.141 21.4233 300.103 21.6833 300.103 21.97C300.103 22.2567 300.141 22.515 300.218 22.745C300.298 22.975 300.414 23.1733 300.568 23.34C300.721 23.5033 300.911 23.6333 301.138 23.73C301.368 23.8267 301.631 23.8817 301.928 23.895L301.933 23.865V20.03ZM302.748 19.36C303.164 19.3767 303.539 19.45 303.873 19.58C304.206 19.71 304.489 19.8883 304.723 20.115C304.956 20.3417 305.134 20.6117 305.258 20.925C305.384 21.235 305.448 21.5817 305.448 21.965C305.448 22.3483 305.384 22.6967 305.258 23.01C305.134 23.32 304.956 23.5883 304.723 23.815C304.489 24.0383 304.206 24.215 303.873 24.345C303.539 24.475 303.164 24.5483 302.748 24.565V26.245H301.908V24.565C301.491 24.5483 301.116 24.475 300.783 24.345C300.449 24.215 300.166 24.0383 299.933 23.815C299.699 23.5883 299.519 23.32 299.393 23.01C299.269 22.6967 299.208 22.3483 299.208 21.965C299.208 21.5817 299.269 21.235 299.393 20.925C299.519 20.6117 299.699 20.3417 299.933 20.115C300.166 19.8883 300.449 19.71 300.783 19.58C301.116 19.45 301.491 19.3767 301.908 19.36V17.335H302.748V19.36ZM307.454 23.28C307.617 23.5 307.795 23.655 307.989 23.745C308.182 23.835 308.399 23.88 308.639 23.88C309.112 23.88 309.475 23.7117 309.729 23.375C309.982 23.0383 310.109 22.5583 310.109 21.935C310.109 21.605 310.079 21.3217 310.019 21.085C309.962 20.8483 309.879 20.655 309.769 20.505C309.659 20.3517 309.524 20.24 309.364 20.17C309.204 20.1 309.022 20.065 308.819 20.065C308.529 20.065 308.274 20.1317 308.054 20.265C307.837 20.3983 307.637 20.5867 307.454 20.83V23.28ZM307.409 20.22C307.622 19.9567 307.869 19.745 308.149 19.585C308.429 19.425 308.749 19.345 309.109 19.345C309.402 19.345 309.667 19.4017 309.904 19.515C310.14 19.625 310.342 19.79 310.509 20.01C310.675 20.2267 310.804 20.4967 310.894 20.82C310.984 21.1433 311.029 21.515 311.029 21.935C311.029 22.3083 310.979 22.6567 310.879 22.98C310.779 23.3 310.634 23.5783 310.444 23.815C310.257 24.0483 310.027 24.2333 309.754 24.37C309.484 24.5033 309.179 24.57 308.839 24.57C308.529 24.57 308.262 24.5183 308.039 24.415C307.819 24.3083 307.624 24.1617 307.454 23.975V26.215H306.559V19.435H307.094C307.22 19.435 307.299 19.4967 307.329 19.62L307.409 20.22ZM314.289 19.355C314.659 19.355 314.993 19.4167 315.289 19.54C315.586 19.6633 315.839 19.8383 316.049 20.065C316.259 20.2917 316.419 20.5667 316.529 20.89C316.643 21.21 316.699 21.5683 316.699 21.965C316.699 22.365 316.643 22.725 316.529 23.045C316.419 23.365 316.259 23.6383 316.049 23.865C315.839 24.0917 315.586 24.2667 315.289 24.39C314.993 24.51 314.659 24.57 314.289 24.57C313.916 24.57 313.579 24.51 313.279 24.39C312.983 24.2667 312.729 24.0917 312.519 23.865C312.309 23.6383 312.148 23.365 312.034 23.045C311.924 22.725 311.869 22.365 311.869 21.965C311.869 21.5683 311.924 21.21 312.034 20.89C312.148 20.5667 312.309 20.2917 312.519 20.065C312.729 19.8383 312.983 19.6633 313.279 19.54C313.579 19.4167 313.916 19.355 314.289 19.355ZM314.289 23.875C314.789 23.875 315.163 23.7083 315.409 23.375C315.656 23.0383 315.779 22.57 315.779 21.97C315.779 21.3667 315.656 20.8967 315.409 20.56C315.163 20.2233 314.789 20.055 314.289 20.055C314.036 20.055 313.814 20.0983 313.624 20.185C313.438 20.2717 313.281 20.3967 313.154 20.56C313.031 20.7233 312.938 20.925 312.874 21.165C312.814 21.4017 312.784 21.67 312.784 21.97C312.784 22.57 312.908 23.0383 313.154 23.375C313.404 23.7083 313.783 23.875 314.289 23.875ZM319.773 23.875C320.106 23.875 320.37 23.7983 320.563 23.645C320.756 23.4883 320.853 23.275 320.853 23.005C320.853 22.885 320.835 22.7767 320.798 22.68C320.761 22.58 320.701 22.4933 320.618 22.42C320.535 22.3467 320.423 22.29 320.283 22.25C320.146 22.21 319.978 22.19 319.778 22.19H318.683V23.875H319.773ZM318.683 20.035V21.625H319.658C319.805 21.625 319.94 21.605 320.063 21.565C320.19 21.5217 320.298 21.4633 320.388 21.39C320.478 21.3133 320.548 21.2233 320.598 21.12C320.648 21.0133 320.673 20.8967 320.673 20.77C320.673 20.6767 320.656 20.5867 320.623 20.5C320.59 20.41 320.533 20.3317 320.453 20.265C320.373 20.195 320.268 20.14 320.138 20.1C320.008 20.0567 319.848 20.035 319.658 20.035H318.683ZM319.683 19.435C319.996 19.435 320.265 19.4667 320.488 19.53C320.711 19.5933 320.895 19.68 321.038 19.79C321.181 19.8967 321.286 20.0233 321.353 20.17C321.42 20.3167 321.453 20.4733 321.453 20.64C321.453 20.75 321.438 20.865 321.408 20.985C321.378 21.105 321.325 21.22 321.248 21.33C321.175 21.44 321.073 21.54 320.943 21.63C320.816 21.7167 320.656 21.785 320.463 21.835C320.85 21.9017 321.148 22.0367 321.358 22.24C321.568 22.44 321.673 22.705 321.673 23.035C321.673 23.2817 321.623 23.4967 321.523 23.68C321.426 23.86 321.291 24.0117 321.118 24.135C320.948 24.2583 320.748 24.35 320.518 24.41C320.288 24.47 320.041 24.5 319.778 24.5H317.828V19.435H319.683ZM324.734 23.85C324.914 23.85 325.069 23.8283 325.199 23.785C325.332 23.7383 325.442 23.675 325.529 23.595C325.616 23.5117 325.681 23.415 325.724 23.305C325.767 23.195 325.789 23.075 325.789 22.945C325.789 22.825 325.771 22.7133 325.734 22.61C325.697 22.5033 325.636 22.41 325.549 22.33C325.466 22.25 325.356 22.1867 325.219 22.14C325.082 22.0933 324.916 22.07 324.719 22.07H323.639V23.85H324.734ZM324.719 21.42C325.069 21.42 325.362 21.4617 325.599 21.545C325.839 21.6283 326.031 21.74 326.174 21.88C326.321 22.02 326.426 22.1817 326.489 22.365C326.552 22.5483 326.584 22.7383 326.584 22.935C326.584 23.1617 326.544 23.3717 326.464 23.565C326.384 23.755 326.266 23.92 326.109 24.06C325.952 24.1967 325.759 24.305 325.529 24.385C325.299 24.4617 325.034 24.5 324.734 24.5H322.789V19.435H323.639V21.42H324.719ZM328.589 19.435V24.5H327.699V19.435H328.589ZM334.166 24.5H333.311C333.237 24.5 333.179 24.4817 333.136 24.445C333.096 24.405 333.062 24.3617 333.036 24.315L331.761 22.33C331.747 22.3767 331.732 22.4233 331.716 22.47C331.702 22.5133 331.682 22.5533 331.656 22.59L330.476 24.315C330.442 24.3617 330.406 24.405 330.366 24.445C330.329 24.4817 330.277 24.5 330.211 24.5H329.416L331.191 21.9L329.486 19.435H330.341C330.414 19.435 330.467 19.4467 330.501 19.47C330.534 19.4933 330.564 19.5267 330.591 19.57L331.836 21.47C331.862 21.3733 331.904 21.28 331.961 21.19L333.051 19.59C333.081 19.5433 333.112 19.5067 333.146 19.48C333.182 19.45 333.226 19.435 333.276 19.435H334.096L332.391 21.855L334.166 24.5ZM341.755 20.115H339.81V24.5H338.92V20.115H336.975V19.435H341.755V20.115ZM345.788 21.415C345.788 21.2083 345.758 21.02 345.698 20.85C345.642 20.6767 345.557 20.5283 345.443 20.405C345.333 20.2783 345.198 20.1817 345.038 20.115C344.878 20.045 344.697 20.01 344.493 20.01C344.067 20.01 343.728 20.135 343.478 20.385C343.232 20.6317 343.078 20.975 343.018 21.415H345.788ZM346.508 23.79C346.398 23.9233 346.267 24.04 346.113 24.14C345.96 24.2367 345.795 24.3167 345.618 24.38C345.445 24.4433 345.265 24.49 345.078 24.52C344.892 24.5533 344.707 24.57 344.523 24.57C344.173 24.57 343.85 24.5117 343.553 24.395C343.26 24.275 343.005 24.1017 342.788 23.875C342.575 23.645 342.408 23.3617 342.288 23.025C342.168 22.6883 342.108 22.3017 342.108 21.865C342.108 21.5117 342.162 21.1817 342.268 20.875C342.378 20.5683 342.535 20.3033 342.738 20.08C342.942 19.8533 343.19 19.6767 343.483 19.55C343.777 19.42 344.107 19.355 344.473 19.355C344.777 19.355 345.057 19.4067 345.313 19.51C345.573 19.61 345.797 19.7567 345.983 19.95C346.173 20.14 346.322 20.3767 346.428 20.66C346.535 20.94 346.588 21.26 346.588 21.62C346.588 21.76 346.573 21.8533 346.543 21.9C346.513 21.9467 346.457 21.97 346.373 21.97H342.988C342.998 22.29 343.042 22.5683 343.118 22.805C343.198 23.0417 343.308 23.24 343.448 23.4C343.588 23.5567 343.755 23.675 343.948 23.755C344.142 23.8317 344.358 23.87 344.598 23.87C344.822 23.87 345.013 23.845 345.173 23.795C345.337 23.7417 345.477 23.685 345.593 23.625C345.71 23.565 345.807 23.51 345.883 23.46C345.963 23.4067 346.032 23.38 346.088 23.38C346.162 23.38 346.218 23.4083 346.258 23.465L346.508 23.79ZM351.773 24.5H350.918C350.845 24.5 350.787 24.4817 350.743 24.445C350.703 24.405 350.67 24.3617 350.643 24.315L349.368 22.33C349.355 22.3767 349.34 22.4233 349.323 22.47C349.31 22.5133 349.29 22.5533 349.263 22.59L348.083 24.315C348.05 24.3617 348.013 24.405 347.973 24.445C347.937 24.4817 347.885 24.5 347.818 24.5H347.023L348.798 21.9L347.093 19.435H347.948C348.022 19.435 348.075 19.4467 348.108 19.47C348.142 19.4933 348.172 19.5267 348.198 19.57L349.443 21.47C349.47 21.3733 349.512 21.28 349.568 21.19L350.658 19.59C350.688 19.5433 350.72 19.5067 350.753 19.48C350.79 19.45 350.833 19.435 350.883 19.435H351.703L349.998 21.855L351.773 24.5ZM356.814 19.435V24.5H355.919V22.13H353.489V24.5H352.594V19.435H353.489V21.455H355.919V19.435H356.814ZM360.363 19.355C360.733 19.355 361.067 19.4167 361.363 19.54C361.66 19.6633 361.913 19.8383 362.123 20.065C362.333 20.2917 362.493 20.5667 362.603 20.89C362.717 21.21 362.773 21.5683 362.773 21.965C362.773 22.365 362.717 22.725 362.603 23.045C362.493 23.365 362.333 23.6383 362.123 23.865C361.913 24.0917 361.66 24.2667 361.363 24.39C361.067 24.51 360.733 24.57 360.363 24.57C359.99 24.57 359.653 24.51 359.353 24.39C359.057 24.2667 358.803 24.0917 358.593 23.865C358.383 23.6383 358.222 23.365 358.108 23.045C357.998 22.725 357.943 22.365 357.943 21.965C357.943 21.5683 357.998 21.21 358.108 20.89C358.222 20.5667 358.383 20.2917 358.593 20.065C358.803 19.8383 359.057 19.6633 359.353 19.54C359.653 19.4167 359.99 19.355 360.363 19.355ZM360.363 23.875C360.863 23.875 361.237 23.7083 361.483 23.375C361.73 23.0383 361.853 22.57 361.853 21.97C361.853 21.3667 361.73 20.8967 361.483 20.56C361.237 20.2233 360.863 20.055 360.363 20.055C360.11 20.055 359.888 20.0983 359.698 20.185C359.512 20.2717 359.355 20.3967 359.228 20.56C359.105 20.7233 359.012 20.925 358.948 21.165C358.888 21.4017 358.858 21.67 358.858 21.97C358.858 22.57 358.982 23.0383 359.228 23.375C359.478 23.7083 359.857 23.875 360.363 23.875ZM368.196 24.5H367.306V20.135H365.706C365.666 20.7783 365.606 21.335 365.526 21.805C365.446 22.2717 365.349 22.67 365.236 23C365.126 23.3267 365.001 23.5933 364.861 23.8C364.724 24.0033 364.579 24.1617 364.426 24.275C364.276 24.3883 364.119 24.465 363.956 24.505C363.796 24.545 363.636 24.565 363.476 24.565C363.192 24.565 363.051 24.52 363.051 24.43V23.865H363.311C363.424 23.865 363.539 23.845 363.656 23.805C363.772 23.765 363.886 23.6883 363.996 23.575C364.109 23.4617 364.217 23.3033 364.321 23.1C364.424 22.8933 364.517 22.6267 364.601 22.3C364.687 21.97 364.761 21.5717 364.821 21.105C364.884 20.635 364.932 20.0783 364.966 19.435H368.196V24.5ZM371.74 19.355C372.11 19.355 372.444 19.4167 372.74 19.54C373.037 19.6633 373.29 19.8383 373.5 20.065C373.71 20.2917 373.87 20.5667 373.98 20.89C374.094 21.21 374.15 21.5683 374.15 21.965C374.15 22.365 374.094 22.725 373.98 23.045C373.87 23.365 373.71 23.6383 373.5 23.865C373.29 24.0917 373.037 24.2667 372.74 24.39C372.444 24.51 372.11 24.57 371.74 24.57C371.367 24.57 371.03 24.51 370.73 24.39C370.434 24.2667 370.18 24.0917 369.97 23.865C369.76 23.6383 369.599 23.365 369.485 23.045C369.375 22.725 369.32 22.365 369.32 21.965C369.32 21.5683 369.375 21.21 369.485 20.89C369.599 20.5667 369.76 20.2917 369.97 20.065C370.18 19.8383 370.434 19.6633 370.73 19.54C371.03 19.4167 371.367 19.355 371.74 19.355ZM371.74 23.875C372.24 23.875 372.614 23.7083 372.86 23.375C373.107 23.0383 373.23 22.57 373.23 21.97C373.23 21.3667 373.107 20.8967 372.86 20.56C372.614 20.2233 372.24 20.055 371.74 20.055C371.487 20.055 371.265 20.0983 371.075 20.185C370.889 20.2717 370.732 20.3967 370.605 20.56C370.482 20.7233 370.389 20.925 370.325 21.165C370.265 21.4017 370.235 21.67 370.235 21.97C370.235 22.57 370.359 23.0383 370.605 23.375C370.855 23.7083 371.234 23.875 371.74 23.875ZM378.564 20.115H376.174V24.5H375.279V19.435H378.564V20.115ZM383.755 19.435V24.5H382.865V21.06C382.865 20.9933 382.868 20.9217 382.875 20.845C382.882 20.7683 382.89 20.6917 382.9 20.615C382.87 20.6817 382.84 20.7433 382.81 20.8C382.78 20.8567 382.748 20.9083 382.715 20.955L380.27 24.28C380.233 24.3333 380.187 24.385 380.13 24.435C380.077 24.4817 380.017 24.505 379.95 24.505H379.41V19.44H380.305V22.88C380.305 22.9433 380.302 23.0133 380.295 23.09C380.288 23.1633 380.28 23.2383 380.27 23.315C380.3 23.2517 380.33 23.1933 380.36 23.14C380.39 23.0833 380.42 23.0317 380.45 22.985L382.895 19.66C382.932 19.6067 382.978 19.5567 383.035 19.51C383.092 19.46 383.153 19.435 383.22 19.435H383.755ZM389.507 19.435V24.5H388.617V21.06C388.617 20.9933 388.62 20.9217 388.627 20.845C388.634 20.7683 388.642 20.6917 388.652 20.615C388.622 20.6817 388.592 20.7433 388.562 20.8C388.532 20.8567 388.5 20.9083 388.467 20.955L386.022 24.28C385.985 24.3333 385.939 24.385 385.882 24.435C385.829 24.4817 385.769 24.505 385.702 24.505H385.162V19.44H386.057V22.88C386.057 22.9433 386.054 23.0133 386.047 23.09C386.04 23.1633 386.032 23.2383 386.022 23.315C386.052 23.2517 386.082 23.1933 386.112 23.14C386.142 23.0833 386.172 23.0317 386.202 22.985L388.647 19.66C388.684 19.6067 388.73 19.5567 388.787 19.51C388.844 19.46 388.905 19.435 388.972 19.435H389.507ZM387.392 18.21C387.529 18.21 387.644 18.195 387.737 18.165C387.83 18.1317 387.905 18.08 387.962 18.01C388.022 17.94 388.065 17.85 388.092 17.74C388.119 17.63 388.132 17.495 388.132 17.335H388.652C388.715 17.335 388.764 17.3633 388.797 17.42C388.83 17.4767 388.847 17.5383 388.847 17.605C388.847 17.7717 388.814 17.9217 388.747 18.055C388.68 18.1883 388.584 18.3033 388.457 18.4C388.334 18.4933 388.182 18.565 388.002 18.615C387.822 18.665 387.619 18.69 387.392 18.69C387.165 18.69 386.962 18.665 386.782 18.615C386.602 18.565 386.449 18.4933 386.322 18.4C386.199 18.3033 386.104 18.1883 386.037 18.055C385.97 17.9217 385.937 17.7717 385.937 17.605C385.937 17.5383 385.954 17.4767 385.987 17.42C386.02 17.3633 386.069 17.335 386.132 17.335H386.652C386.652 17.495 386.665 17.63 386.692 17.74C386.719 17.85 386.76 17.94 386.817 18.01C386.877 18.08 386.954 18.1317 387.047 18.165C387.14 18.195 387.255 18.21 387.392 18.21ZM392.524 21.795V21.91L391.279 23.855L390.989 23.715C390.912 23.6783 390.866 23.6267 390.849 23.56C390.836 23.49 390.852 23.4167 390.899 23.34L391.689 22.035C391.716 21.995 391.739 21.96 391.759 21.93C391.782 21.8967 391.807 21.87 391.834 21.85C391.807 21.8333 391.782 21.81 391.759 21.78C391.739 21.7467 391.716 21.71 391.689 21.67L390.899 20.365C390.852 20.2883 390.836 20.2167 390.849 20.15C390.866 20.08 390.912 20.0267 390.989 19.99L391.279 19.85L392.524 21.795ZM394.004 21.795V21.91L392.759 23.855L392.469 23.715C392.392 23.6783 392.346 23.6267 392.329 23.56C392.316 23.49 392.332 23.4167 392.379 23.34L393.169 22.035C393.196 21.995 393.219 21.96 393.239 21.93C393.262 21.8967 393.287 21.87 393.314 21.85C393.287 21.8333 393.262 21.81 393.239 21.78C393.219 21.7467 393.196 21.71 393.169 21.67L392.379 20.365C392.332 20.2883 392.316 20.2167 392.329 20.15C392.346 20.08 392.392 20.0267 392.469 19.99L392.759 19.85L394.004 21.795Z" fill="#304659"/>
</svg>
